<svg width="398" height="516" viewBox="0 0 398 516" fill="none" xmlns="http://www.w3.org/2000/svg">
<g clip-path="url(#clip0_202_214)">
<rect x="4" y="4" width="390" height="508" rx="32" fill="black" fill-opacity="0.1"/>
<g filter="url(#filter0_b_202_214)">
<path d="M4 300.2C4 282.278 4 273.317 7.48779 266.472C10.5557 260.451 15.4511 255.556 21.4723 252.488C28.3175 249 37.2783 249 55.2 249H342.8C360.722 249 369.683 249 376.528 252.488C382.549 255.556 387.444 260.451 390.512 266.472C394 273.317 394 282.278 394 300.2V460.8C394 478.722 394 487.683 390.512 494.528C387.444 500.549 382.549 505.444 376.528 508.512C369.683 512 360.722 512 342.8 512H55.2C37.2783 512 28.3175 512 21.4723 508.512C15.4511 505.444 10.5557 500.549 7.48779 494.528C4 487.683 4 478.722 4 460.8V300.2Z" fill="white" fill-opacity="0.2"/>
<path d="M37.316 309V299.2H41.6C42.664 299.2 43.5973 299.405 44.4 299.816C45.2027 300.227 45.828 300.796 46.276 301.524C46.724 302.252 46.948 303.111 46.948 304.1C46.948 305.08 46.724 305.939 46.276 306.676C45.828 307.404 45.2027 307.973 44.4 308.384C43.5973 308.795 42.664 309 41.6 309H37.316ZM39.136 307.46H41.516C42.2533 307.46 42.888 307.32 43.42 307.04C43.9613 306.76 44.3767 306.368 44.666 305.864C44.9647 305.36 45.114 304.772 45.114 304.1C45.114 303.419 44.9647 302.831 44.666 302.336C44.3767 301.832 43.9613 301.44 43.42 301.16C42.888 300.88 42.2533 300.74 41.516 300.74H39.136V307.46ZM52.0744 309.098C51.3091 309.098 50.6277 308.935 50.0304 308.608C49.4331 308.272 48.9617 307.815 48.6164 307.236C48.2711 306.657 48.0984 305.999 48.0984 305.262C48.0984 304.515 48.2711 303.857 48.6164 303.288C48.9617 302.709 49.4331 302.257 50.0304 301.93C50.6277 301.603 51.3091 301.44 52.0744 301.44C52.8491 301.44 53.5351 301.603 54.1324 301.93C54.7391 302.257 55.2104 302.705 55.5464 303.274C55.8917 303.843 56.0644 304.506 56.0644 305.262C56.0644 305.999 55.8917 306.657 55.5464 307.236C55.2104 307.815 54.7391 308.272 54.1324 308.608C53.5351 308.935 52.8491 309.098 52.0744 309.098ZM52.0744 307.6C52.5037 307.6 52.8864 307.507 53.2224 307.32C53.5584 307.133 53.8197 306.863 54.0064 306.508C54.2024 306.153 54.3004 305.738 54.3004 305.262C54.3004 304.777 54.2024 304.361 54.0064 304.016C53.8197 303.661 53.5584 303.391 53.2224 303.204C52.8864 303.017 52.5084 302.924 52.0884 302.924C51.6591 302.924 51.2764 303.017 50.9404 303.204C50.6137 303.391 50.3524 303.661 50.1564 304.016C49.9604 304.361 49.8624 304.777 49.8624 305.262C49.8624 305.738 49.9604 306.153 50.1564 306.508C50.3524 306.863 50.6137 307.133 50.9404 307.32C51.2764 307.507 51.6544 307.6 52.0744 307.6ZM64.183 309V305.122L64.589 306.242L60.333 299.2H62.279L65.695 304.87H64.603L68.047 299.2H69.839L65.583 306.242L66.003 305.122V309H64.183ZM73.3889 309.098C72.6235 309.098 71.9422 308.935 71.3449 308.608C70.7475 308.272 70.2762 307.815 69.9309 307.236C69.5855 306.657 69.4129 305.999 69.4129 305.262C69.4129 304.515 69.5855 303.857 69.9309 303.288C70.2762 302.709 70.7475 302.257 71.3449 301.93C71.9422 301.603 72.6235 301.44 73.3889 301.44C74.1635 301.44 74.8495 301.603 75.4469 301.93C76.0535 302.257 76.5249 302.705 76.8609 303.274C77.2062 303.843 77.3789 304.506 77.3789 305.262C77.3789 305.999 77.2062 306.657 76.8609 307.236C76.5249 307.815 76.0535 308.272 75.4469 308.608C74.8495 308.935 74.1635 309.098 73.3889 309.098ZM73.3889 307.6C73.8182 307.6 74.2009 307.507 74.5369 307.32C74.8729 307.133 75.1342 306.863 75.3209 306.508C75.5169 306.153 75.6149 305.738 75.6149 305.262C75.6149 304.777 75.5169 304.361 75.3209 304.016C75.1342 303.661 74.8729 303.391 74.5369 303.204C74.2009 303.017 73.8229 302.924 73.4029 302.924C72.9735 302.924 72.5909 303.017 72.2549 303.204C71.9282 303.391 71.6669 303.661 71.4709 304.016C71.2749 304.361 71.1769 304.777 71.1769 305.262C71.1769 305.738 71.2749 306.153 71.4709 306.508C71.6669 306.863 71.9282 307.133 72.2549 307.32C72.5909 307.507 72.9689 307.6 73.3889 307.6ZM82.2163 309.098C81.5816 309.098 81.0216 308.981 80.5363 308.748C80.051 308.505 79.673 308.141 79.4023 307.656C79.1316 307.161 78.9963 306.541 78.9963 305.794V301.524H80.7463V305.556C80.7463 306.228 80.8956 306.732 81.1943 307.068C81.5023 307.395 81.9363 307.558 82.4963 307.558C82.907 307.558 83.2616 307.474 83.5603 307.306C83.8683 307.138 84.1063 306.886 84.2743 306.55C84.4516 306.214 84.5403 305.799 84.5403 305.304V301.524H86.2903V309H84.6243V306.984L84.9183 307.6C84.6663 308.085 84.2976 308.459 83.8123 308.72C83.327 308.972 82.795 309.098 82.2163 309.098ZM94.9287 309L91.6807 299.2H93.5707L96.4687 308.062H95.5307L98.5407 299.2H100.221L103.147 308.062H102.237L105.205 299.2H106.941L103.693 309H101.761L99.0867 301.006H99.5907L96.8747 309H94.9287ZM112.301 309V307.488L112.203 307.166V304.52C112.203 304.007 112.049 303.61 111.741 303.33C111.433 303.041 110.966 302.896 110.341 302.896C109.921 302.896 109.506 302.961 109.095 303.092C108.694 303.223 108.353 303.405 108.073 303.638L107.387 302.364C107.788 302.056 108.264 301.827 108.815 301.678C109.375 301.519 109.954 301.44 110.551 301.44C111.634 301.44 112.469 301.701 113.057 302.224C113.654 302.737 113.953 303.535 113.953 304.618V309H112.301ZM109.949 309.098C109.389 309.098 108.899 309.005 108.479 308.818C108.059 308.622 107.732 308.356 107.499 308.02C107.275 307.675 107.163 307.287 107.163 306.858C107.163 306.438 107.261 306.06 107.457 305.724C107.662 305.388 107.994 305.122 108.451 304.926C108.908 304.73 109.515 304.632 110.271 304.632H112.441V305.794H110.397C109.8 305.794 109.398 305.892 109.193 306.088C108.988 306.275 108.885 306.508 108.885 306.788C108.885 307.105 109.011 307.357 109.263 307.544C109.515 307.731 109.865 307.824 110.313 307.824C110.742 307.824 111.125 307.726 111.461 307.53C111.806 307.334 112.054 307.045 112.203 306.662L112.497 307.712C112.329 308.151 112.026 308.491 111.587 308.734C111.158 308.977 110.612 309.098 109.949 309.098ZM120.441 301.44C121.038 301.44 121.57 301.557 122.037 301.79C122.513 302.023 122.886 302.383 123.157 302.868C123.427 303.344 123.563 303.96 123.563 304.716V309H121.813V304.94C121.813 304.277 121.654 303.783 121.337 303.456C121.029 303.129 120.595 302.966 120.035 302.966C119.624 302.966 119.26 303.05 118.943 303.218C118.625 303.386 118.378 303.638 118.201 303.974C118.033 304.301 117.949 304.716 117.949 305.22V309H116.199V301.524H117.865V303.54L117.571 302.924C117.832 302.448 118.21 302.084 118.705 301.832C119.209 301.571 119.787 301.44 120.441 301.44ZM128.597 309.098C127.775 309.098 127.141 308.888 126.693 308.468C126.245 308.039 126.021 307.409 126.021 306.578V299.872H127.771V306.536C127.771 306.891 127.859 307.166 128.037 307.362C128.223 307.558 128.48 307.656 128.807 307.656C129.199 307.656 129.525 307.553 129.787 307.348L130.277 308.594C130.071 308.762 129.819 308.888 129.521 308.972C129.222 309.056 128.914 309.098 128.597 309.098ZM124.789 302.98V301.58H129.773V302.98H124.789ZM137.742 309V300.74H134.494V299.2H142.81V300.74H139.562V309H137.742ZM146.602 309.098C145.836 309.098 145.155 308.935 144.558 308.608C143.96 308.272 143.489 307.815 143.144 307.236C142.798 306.657 142.626 305.999 142.626 305.262C142.626 304.515 142.798 303.857 143.144 303.288C143.489 302.709 143.96 302.257 144.558 301.93C145.155 301.603 145.836 301.44 146.602 301.44C147.376 301.44 148.062 301.603 148.66 301.93C149.266 302.257 149.738 302.705 150.074 303.274C150.419 303.843 150.592 304.506 150.592 305.262C150.592 305.999 150.419 306.657 150.074 307.236C149.738 307.815 149.266 308.272 148.66 308.608C148.062 308.935 147.376 309.098 146.602 309.098ZM146.602 307.6C147.031 307.6 147.414 307.507 147.75 307.32C148.086 307.133 148.347 306.863 148.534 306.508C148.73 306.153 148.828 305.738 148.828 305.262C148.828 304.777 148.73 304.361 148.534 304.016C148.347 303.661 148.086 303.391 147.75 303.204C147.414 303.017 147.036 302.924 146.616 302.924C146.186 302.924 145.804 303.017 145.468 303.204C145.141 303.391 144.88 303.661 144.684 304.016C144.488 304.361 144.39 304.777 144.39 305.262C144.39 305.738 144.488 306.153 144.684 306.508C144.88 306.863 145.141 307.133 145.468 307.32C145.804 307.507 146.182 307.6 146.602 307.6ZM156.302 309V299.2H158.122V309H156.302ZM164.847 301.44C165.444 301.44 165.976 301.557 166.443 301.79C166.919 302.023 167.292 302.383 167.563 302.868C167.834 303.344 167.969 303.96 167.969 304.716V309H166.219V304.94C166.219 304.277 166.06 303.783 165.743 303.456C165.435 303.129 165.001 302.966 164.441 302.966C164.03 302.966 163.666 303.05 163.349 303.218C163.032 303.386 162.784 303.638 162.607 303.974C162.439 304.301 162.355 304.716 162.355 305.22V309H160.605V301.524H162.271V303.54L161.977 302.924C162.238 302.448 162.616 302.084 163.111 301.832C163.615 301.571 164.194 301.44 164.847 301.44ZM173.633 309.098C172.849 309.098 172.149 308.935 171.533 308.608C170.926 308.272 170.45 307.815 170.105 307.236C169.759 306.657 169.587 305.999 169.587 305.262C169.587 304.515 169.759 303.857 170.105 303.288C170.45 302.709 170.926 302.257 171.533 301.93C172.149 301.603 172.849 301.44 173.633 301.44C174.361 301.44 175 301.589 175.551 301.888C176.111 302.177 176.535 302.607 176.825 303.176L175.481 303.96C175.257 303.605 174.981 303.344 174.655 303.176C174.337 303.008 173.992 302.924 173.619 302.924C173.189 302.924 172.802 303.017 172.457 303.204C172.111 303.391 171.841 303.661 171.645 304.016C171.449 304.361 171.351 304.777 171.351 305.262C171.351 305.747 171.449 306.167 171.645 306.522C171.841 306.867 172.111 307.133 172.457 307.32C172.802 307.507 173.189 307.6 173.619 307.6C173.992 307.6 174.337 307.516 174.655 307.348C174.981 307.18 175.257 306.919 175.481 306.564L176.825 307.348C176.535 307.908 176.111 308.342 175.551 308.65C175 308.949 174.361 309.098 173.633 309.098ZM178.269 309V298.612H180.019V309H178.269ZM185.48 309.098C184.845 309.098 184.285 308.981 183.8 308.748C183.315 308.505 182.937 308.141 182.666 307.656C182.395 307.161 182.26 306.541 182.26 305.794V301.524H184.01V305.556C184.01 306.228 184.159 306.732 184.458 307.068C184.766 307.395 185.2 307.558 185.76 307.558C186.171 307.558 186.525 307.474 186.824 307.306C187.132 307.138 187.37 306.886 187.538 306.55C187.715 306.214 187.804 305.799 187.804 305.304V301.524H189.554V309H187.888V306.984L188.182 307.6C187.93 308.085 187.561 308.459 187.076 308.72C186.591 308.972 186.059 309.098 185.48 309.098ZM195.009 309.098C194.291 309.098 193.642 308.939 193.063 308.622C192.494 308.295 192.046 307.847 191.719 307.278C191.393 306.709 191.229 306.037 191.229 305.262C191.229 304.487 191.393 303.815 191.719 303.246C192.046 302.677 192.494 302.233 193.063 301.916C193.642 301.599 194.291 301.44 195.009 301.44C195.635 301.44 196.195 301.58 196.689 301.86C197.184 302.131 197.576 302.546 197.865 303.106C198.155 303.666 198.299 304.385 198.299 305.262C198.299 306.13 198.159 306.849 197.879 307.418C197.599 307.978 197.212 308.398 196.717 308.678C196.223 308.958 195.653 309.098 195.009 309.098ZM195.219 307.6C195.639 307.6 196.013 307.507 196.339 307.32C196.675 307.133 196.941 306.863 197.137 306.508C197.343 306.153 197.445 305.738 197.445 305.262C197.445 304.777 197.343 304.361 197.137 304.016C196.941 303.661 196.675 303.391 196.339 303.204C196.013 303.017 195.639 302.924 195.219 302.924C194.799 302.924 194.421 303.017 194.085 303.204C193.759 303.391 193.493 303.661 193.287 304.016C193.091 304.361 192.993 304.777 192.993 305.262C192.993 305.738 193.091 306.153 193.287 306.508C193.493 306.863 193.759 307.133 194.085 307.32C194.421 307.507 194.799 307.6 195.219 307.6ZM197.487 309V307.236L197.557 305.248L197.417 303.26V298.612H199.153V309H197.487ZM204.971 309.098C204.14 309.098 203.412 308.935 202.787 308.608C202.171 308.272 201.69 307.815 201.345 307.236C201.009 306.657 200.841 305.999 200.841 305.262C200.841 304.515 201.004 303.857 201.331 303.288C201.667 302.709 202.124 302.257 202.703 301.93C203.291 301.603 203.958 301.44 204.705 301.44C205.433 301.44 206.081 301.599 206.651 301.916C207.22 302.233 207.668 302.681 207.995 303.26C208.321 303.839 208.485 304.52 208.485 305.304C208.485 305.379 208.48 305.463 208.471 305.556C208.471 305.649 208.466 305.738 208.457 305.822H202.227V304.66H207.533L206.847 305.024C206.856 304.595 206.767 304.217 206.581 303.89C206.394 303.563 206.137 303.307 205.811 303.12C205.493 302.933 205.125 302.84 204.705 302.84C204.275 302.84 203.897 302.933 203.571 303.12C203.253 303.307 203.001 303.568 202.815 303.904C202.637 304.231 202.549 304.618 202.549 305.066V305.346C202.549 305.794 202.651 306.191 202.857 306.536C203.062 306.881 203.351 307.147 203.725 307.334C204.098 307.521 204.527 307.614 205.013 307.614C205.433 307.614 205.811 307.549 206.147 307.418C206.483 307.287 206.781 307.082 207.043 306.802L207.981 307.88C207.645 308.272 207.22 308.575 206.707 308.79C206.203 308.995 205.624 309.098 204.971 309.098ZM212.817 309L217.227 299.2H219.019L223.443 309H221.539L217.745 300.166H218.473L214.693 309H212.817ZM214.847 306.732L215.337 305.304H220.629L221.119 306.732H214.847ZM230.546 309V300.74H227.298V299.2H235.614V300.74H232.366V309H230.546ZM236.812 309V301.524H238.562V309H236.812ZM237.694 300.292C237.367 300.292 237.097 300.189 236.882 299.984C236.677 299.779 236.574 299.531 236.574 299.242C236.574 298.943 236.677 298.696 236.882 298.5C237.097 298.295 237.367 298.192 237.694 298.192C238.021 298.192 238.287 298.29 238.492 298.486C238.707 298.673 238.814 298.911 238.814 299.2C238.814 299.508 238.711 299.769 238.506 299.984C238.301 300.189 238.03 300.292 237.694 300.292ZM245.003 309.098C244.396 309.098 243.841 308.958 243.337 308.678C242.842 308.398 242.446 307.978 242.147 307.418C241.858 306.849 241.713 306.13 241.713 305.262C241.713 304.385 241.853 303.666 242.133 303.106C242.422 302.546 242.814 302.131 243.309 301.86C243.804 301.58 244.368 301.44 245.003 301.44C245.74 301.44 246.389 301.599 246.949 301.916C247.518 302.233 247.966 302.677 248.293 303.246C248.629 303.815 248.797 304.487 248.797 305.262C248.797 306.037 248.629 306.713 248.293 307.292C247.966 307.861 247.518 308.305 246.949 308.622C246.389 308.939 245.74 309.098 245.003 309.098ZM240.859 311.716V301.524H242.525V303.288L242.469 305.276L242.609 307.264V311.716H240.859ZM244.807 307.6C245.227 307.6 245.6 307.507 245.927 307.32C246.263 307.133 246.529 306.863 246.725 306.508C246.921 306.153 247.019 305.738 247.019 305.262C247.019 304.777 246.921 304.361 246.725 304.016C246.529 303.661 246.263 303.391 245.927 303.204C245.6 303.017 245.227 302.924 244.807 302.924C244.387 302.924 244.009 303.017 243.673 303.204C243.337 303.391 243.071 303.661 242.875 304.016C242.679 304.361 242.581 304.777 242.581 305.262C242.581 305.738 242.679 306.153 242.875 306.508C243.071 306.863 243.337 307.133 243.673 307.32C244.009 307.507 244.387 307.6 244.807 307.6ZM251.788 305.752C251.788 305.407 251.844 305.103 251.956 304.842C252.068 304.581 252.212 304.347 252.39 304.142C252.567 303.937 252.754 303.745 252.95 303.568C253.155 303.391 253.346 303.218 253.524 303.05C253.701 302.882 253.846 302.705 253.958 302.518C254.07 302.331 254.126 302.121 254.126 301.888C254.126 301.496 253.967 301.179 253.65 300.936C253.332 300.693 252.908 300.572 252.376 300.572C251.862 300.572 251.414 300.665 251.032 300.852C250.658 301.039 250.346 301.305 250.094 301.65L248.736 300.768C249.128 300.236 249.641 299.821 250.276 299.522C250.91 299.214 251.662 299.06 252.53 299.06C253.211 299.06 253.808 299.163 254.322 299.368C254.835 299.564 255.236 299.853 255.526 300.236C255.815 300.609 255.96 301.067 255.96 301.608C255.96 301.981 255.899 302.308 255.778 302.588C255.666 302.868 255.516 303.115 255.33 303.33C255.152 303.535 254.961 303.731 254.756 303.918C254.55 304.095 254.354 304.273 254.168 304.45C253.99 304.627 253.846 304.819 253.734 305.024C253.622 305.229 253.566 305.472 253.566 305.752H251.788ZM252.684 309.098C252.357 309.098 252.086 308.991 251.872 308.776C251.666 308.561 251.564 308.305 251.564 308.006C251.564 307.707 251.666 307.455 251.872 307.25C252.086 307.035 252.357 306.928 252.684 306.928C253.01 306.928 253.276 307.035 253.482 307.25C253.687 307.455 253.79 307.707 253.79 308.006C253.79 308.305 253.687 308.561 253.482 308.776C253.276 308.991 253.01 309.098 252.684 309.098Z" fill="white"/>
<path d="M39.732 337.12C39.076 337.12 38.448 337.028 37.848 336.844C37.248 336.652 36.772 336.408 36.42 336.112L36.96 334.9C37.296 335.164 37.712 335.384 38.208 335.56C38.704 335.736 39.212 335.824 39.732 335.824C40.172 335.824 40.528 335.776 40.8 335.68C41.072 335.584 41.272 335.456 41.4 335.296C41.528 335.128 41.592 334.94 41.592 334.732C41.592 334.476 41.5 334.272 41.316 334.12C41.132 333.96 40.892 333.836 40.596 333.748C40.308 333.652 39.984 333.564 39.624 333.484C39.272 333.404 38.916 333.312 38.556 333.208C38.204 333.096 37.88 332.956 37.584 332.788C37.296 332.612 37.06 332.38 36.876 332.092C36.692 331.804 36.6 331.436 36.6 330.988C36.6 330.532 36.72 330.116 36.96 329.74C37.208 329.356 37.58 329.052 38.076 328.828C38.58 328.596 39.216 328.48 39.984 328.48C40.488 328.48 40.988 328.544 41.484 328.672C41.98 328.8 42.412 328.984 42.78 329.224L42.288 330.436C41.912 330.212 41.524 330.048 41.124 329.944C40.724 329.832 40.34 329.776 39.972 329.776C39.54 329.776 39.188 329.828 38.916 329.932C38.652 330.036 38.456 330.172 38.328 330.34C38.208 330.508 38.148 330.7 38.148 330.916C38.148 331.172 38.236 331.38 38.412 331.54C38.596 331.692 38.832 331.812 39.12 331.9C39.416 331.988 39.744 332.076 40.104 332.164C40.464 332.244 40.82 332.336 41.172 332.44C41.532 332.544 41.856 332.68 42.144 332.848C42.44 333.016 42.676 333.244 42.852 333.532C43.036 333.82 43.128 334.184 43.128 334.624C43.128 335.072 43.004 335.488 42.756 335.872C42.516 336.248 42.144 336.552 41.64 336.784C41.136 337.008 40.5 337.12 39.732 337.12ZM47.5429 337.084C46.8309 337.084 46.2069 336.944 45.6709 336.664C45.1429 336.376 44.7309 335.984 44.4349 335.488C44.1469 334.992 44.0029 334.428 44.0029 333.796C44.0029 333.156 44.1429 332.592 44.4229 332.104C44.7109 331.608 45.1029 331.22 45.5989 330.94C46.1029 330.66 46.6749 330.52 47.3149 330.52C47.9389 330.52 48.4949 330.656 48.9829 330.928C49.4709 331.2 49.8549 331.584 50.1349 332.08C50.4149 332.576 50.5549 333.16 50.5549 333.832C50.5549 333.896 50.5509 333.968 50.5429 334.048C50.5429 334.128 50.5389 334.204 50.5309 334.276H45.1909V333.28H49.7389L49.1509 333.592C49.1589 333.224 49.0829 332.9 48.9229 332.62C48.7629 332.34 48.5429 332.12 48.2629 331.96C47.9909 331.8 47.6749 331.72 47.3149 331.72C46.9469 331.72 46.6229 331.8 46.3429 331.96C46.0709 332.12 45.8549 332.344 45.6949 332.632C45.5429 332.912 45.4669 333.244 45.4669 333.628V333.868C45.4669 334.252 45.5549 334.592 45.7309 334.888C45.9069 335.184 46.1549 335.412 46.4749 335.572C46.7949 335.732 47.1629 335.812 47.5789 335.812C47.9389 335.812 48.2629 335.756 48.5509 335.644C48.8389 335.532 49.0949 335.356 49.3189 335.116L50.1229 336.04C49.8349 336.376 49.4709 336.636 49.0309 336.82C48.5989 336.996 48.1029 337.084 47.5429 337.084ZM51.9957 337V328.096H53.4957V337H51.9957ZM58.4765 337.084C57.7645 337.084 57.1405 336.944 56.6045 336.664C56.0765 336.376 55.6645 335.984 55.3685 335.488C55.0805 334.992 54.9365 334.428 54.9365 333.796C54.9365 333.156 55.0765 332.592 55.3565 332.104C55.6445 331.608 56.0365 331.22 56.5325 330.94C57.0365 330.66 57.6085 330.52 58.2485 330.52C58.8725 330.52 59.4285 330.656 59.9165 330.928C60.4045 331.2 60.7885 331.584 61.0685 332.08C61.3485 332.576 61.4885 333.16 61.4885 333.832C61.4885 333.896 61.4845 333.968 61.4765 334.048C61.4765 334.128 61.4725 334.204 61.4645 334.276H56.1245V333.28H60.6725L60.0845 333.592C60.0925 333.224 60.0165 332.9 59.8565 332.62C59.6965 332.34 59.4765 332.12 59.1965 331.96C58.9245 331.8 58.6085 331.72 58.2485 331.72C57.8805 331.72 57.5565 331.8 57.2765 331.96C57.0045 332.12 56.7885 332.344 56.6285 332.632C56.4765 332.912 56.4005 333.244 56.4005 333.628V333.868C56.4005 334.252 56.4885 334.592 56.6645 334.888C56.8405 335.184 57.0885 335.412 57.4085 335.572C57.7285 335.732 58.0965 335.812 58.5125 335.812C58.8725 335.812 59.1965 335.756 59.4845 335.644C59.7725 335.532 60.0285 335.356 60.2525 335.116L61.0565 336.04C60.7685 336.376 60.4045 336.636 59.9645 336.82C59.5325 336.996 59.0365 337.084 58.4765 337.084ZM65.8693 337.084C65.1973 337.084 64.5973 336.944 64.0693 336.664C63.5493 336.376 63.1413 335.984 62.8453 335.488C62.5493 334.992 62.4013 334.428 62.4013 333.796C62.4013 333.156 62.5493 332.592 62.8453 332.104C63.1413 331.608 63.5493 331.22 64.0693 330.94C64.5973 330.66 65.1973 330.52 65.8693 330.52C66.4933 330.52 67.0413 330.648 67.5133 330.904C67.9933 331.152 68.3573 331.52 68.6053 332.008L67.4533 332.68C67.2613 332.376 67.0253 332.152 66.7453 332.008C66.4733 331.864 66.1773 331.792 65.8573 331.792C65.4893 331.792 65.1573 331.872 64.8613 332.032C64.5653 332.192 64.3333 332.424 64.1653 332.728C63.9973 333.024 63.9133 333.38 63.9133 333.796C63.9133 334.212 63.9973 334.572 64.1653 334.876C64.3333 335.172 64.5653 335.4 64.8613 335.56C65.1573 335.72 65.4893 335.8 65.8573 335.8C66.1773 335.8 66.4733 335.728 66.7453 335.584C67.0253 335.44 67.2613 335.216 67.4533 334.912L68.6053 335.584C68.3573 336.064 67.9933 336.436 67.5133 336.7C67.0413 336.956 66.4933 337.084 65.8693 337.084ZM72.396 337.084C71.692 337.084 71.148 336.904 70.764 336.544C70.38 336.176 70.188 335.636 70.188 334.924V329.176H71.688V334.888C71.688 335.192 71.764 335.428 71.916 335.596C72.076 335.764 72.296 335.848 72.576 335.848C72.912 335.848 73.192 335.76 73.416 335.584L73.836 336.652C73.66 336.796 73.444 336.904 73.188 336.976C72.932 337.048 72.668 337.084 72.396 337.084ZM69.132 331.84V330.64H73.404V331.84H69.132ZM80.5943 337V333.676L80.9423 334.636L77.2943 328.6H78.9623L81.8903 333.46H80.9543L83.9063 328.6H85.4423L81.7943 334.636L82.1543 333.676V337H80.5943ZM88.4851 337.084C87.8291 337.084 87.2451 336.944 86.7331 336.664C86.2211 336.376 85.8171 335.984 85.5211 335.488C85.2251 334.992 85.0771 334.428 85.0771 333.796C85.0771 333.156 85.2251 332.592 85.5211 332.104C85.8171 331.608 86.2211 331.22 86.7331 330.94C87.2451 330.66 87.8291 330.52 88.4851 330.52C89.1491 330.52 89.7371 330.66 90.2491 330.94C90.7691 331.22 91.1731 331.604 91.4611 332.092C91.7571 332.58 91.9051 333.148 91.9051 333.796C91.9051 334.428 91.7571 334.992 91.4611 335.488C91.1731 335.984 90.7691 336.376 90.2491 336.664C89.7371 336.944 89.1491 337.084 88.4851 337.084ZM88.4851 335.8C88.8531 335.8 89.1811 335.72 89.4691 335.56C89.7571 335.4 89.9811 335.168 90.1411 334.864C90.3091 334.56 90.3931 334.204 90.3931 333.796C90.3931 333.38 90.3091 333.024 90.1411 332.728C89.9811 332.424 89.7571 332.192 89.4691 332.032C89.1811 331.872 88.8571 331.792 88.4971 331.792C88.1291 331.792 87.8011 331.872 87.5131 332.032C87.2331 332.192 87.0091 332.424 86.8411 332.728C86.6731 333.024 86.5891 333.38 86.5891 333.796C86.5891 334.204 86.6731 334.56 86.8411 334.864C87.0091 335.168 87.2331 335.4 87.5131 335.56C87.8011 335.72 88.1251 335.8 88.4851 335.8ZM96.0515 337.084C95.5075 337.084 95.0275 336.984 94.6115 336.784C94.1955 336.576 93.8715 336.264 93.6395 335.848C93.4075 335.424 93.2915 334.892 93.2915 334.252V330.592H94.7915V334.048C94.7915 334.624 94.9195 335.056 95.1755 335.344C95.4395 335.624 95.8115 335.764 96.2915 335.764C96.6435 335.764 96.9475 335.692 97.2035 335.548C97.4675 335.404 97.6715 335.188 97.8155 334.9C97.9675 334.612 98.0435 334.256 98.0435 333.832V330.592H99.5435V337H98.1155V335.272L98.3675 335.8C98.1515 336.216 97.8355 336.536 97.4195 336.76C97.0035 336.976 96.5475 337.084 96.0515 337.084ZM101.507 337V330.592H102.935V332.356L102.767 331.84C102.959 331.408 103.259 331.08 103.667 330.856C104.083 330.632 104.599 330.52 105.215 330.52V331.948C105.151 331.932 105.091 331.924 105.035 331.924C104.979 331.916 104.923 331.912 104.867 331.912C104.299 331.912 103.847 332.08 103.511 332.416C103.175 332.744 103.007 333.236 103.007 333.892V337H101.507ZM111.711 337V329.92H108.927V328.6H116.055V329.92H113.271V337H111.711ZM117.082 337V330.592H118.582V337H117.082ZM117.838 329.536C117.558 329.536 117.326 329.448 117.142 329.272C116.966 329.096 116.878 328.884 116.878 328.636C116.878 328.38 116.966 328.168 117.142 328C117.326 327.824 117.558 327.736 117.838 327.736C118.118 327.736 118.346 327.82 118.522 327.988C118.706 328.148 118.798 328.352 118.798 328.6C118.798 328.864 118.71 329.088 118.534 329.272C118.358 329.448 118.126 329.536 117.838 329.536ZM124.102 337.084C123.582 337.084 123.106 336.964 122.674 336.724C122.25 336.484 121.91 336.124 121.654 335.644C121.406 335.156 121.282 334.54 121.282 333.796C121.282 333.044 121.402 332.428 121.642 331.948C121.89 331.468 122.226 331.112 122.65 330.88C123.074 330.64 123.558 330.52 124.102 330.52C124.734 330.52 125.29 330.656 125.77 330.928C126.258 331.2 126.642 331.58 126.922 332.068C127.21 332.556 127.354 333.132 127.354 333.796C127.354 334.46 127.21 335.04 126.922 335.536C126.642 336.024 126.258 336.404 125.77 336.676C125.29 336.948 124.734 337.084 124.102 337.084ZM120.55 339.328V330.592H121.978V332.104L121.93 333.808L122.05 335.512V339.328H120.55ZM123.934 335.8C124.294 335.8 124.614 335.72 124.894 335.56C125.182 335.4 125.41 335.168 125.578 334.864C125.746 334.56 125.83 334.204 125.83 333.796C125.83 333.38 125.746 333.024 125.578 332.728C125.41 332.424 125.182 332.192 124.894 332.032C124.614 331.872 124.294 331.792 123.934 331.792C123.574 331.792 123.25 331.872 122.962 332.032C122.674 332.192 122.446 332.424 122.278 332.728C122.11 333.024 122.026 333.38 122.026 333.796C122.026 334.204 122.11 334.56 122.278 334.864C122.446 335.168 122.674 335.4 122.962 335.56C123.25 335.72 123.574 335.8 123.934 335.8Z" fill="white"/>
<rect x="37" y="357" width="96.6667" height="46" rx="9" stroke="white" stroke-opacity="0.2" stroke-width="2"/>
<path d="M74.6 389.4V370.6H76.24V389.4H74.6ZM75.22 387.2C74.1267 387.2 73.08 387.047 72.08 386.74C71.08 386.42 70.2867 386.013 69.7 385.52L70.6 383.5C71.16 383.94 71.8533 384.307 72.68 384.6C73.5067 384.893 74.3533 385.04 75.22 385.04C75.9533 385.04 76.5467 384.96 77 384.8C77.4533 384.64 77.7867 384.427 78 384.16C78.2133 383.88 78.32 383.567 78.32 383.22C78.32 382.793 78.1667 382.453 77.86 382.2C77.5533 381.933 77.1533 381.727 76.66 381.58C76.18 381.42 75.64 381.273 75.04 381.14C74.4533 381.007 73.86 380.853 73.26 380.68C72.6733 380.493 72.1333 380.26 71.64 379.98C71.16 379.687 70.7667 379.3 70.46 378.82C70.1533 378.34 70 377.727 70 376.98C70 376.22 70.2 375.527 70.6 374.9C71.0133 374.26 71.6333 373.753 72.46 373.38C73.3 372.993 74.36 372.8 75.64 372.8C76.48 372.8 77.3133 372.907 78.14 373.12C78.9667 373.333 79.6867 373.64 80.3 374.04L79.48 376.06C78.8533 375.687 78.2067 375.413 77.54 375.24C76.8733 375.053 76.2333 374.96 75.62 374.96C74.9 374.96 74.3133 375.047 73.86 375.22C73.42 375.393 73.0933 375.62 72.88 375.9C72.68 376.18 72.58 376.5 72.58 376.86C72.58 377.287 72.7267 377.633 73.02 377.9C73.3267 378.153 73.72 378.353 74.2 378.5C74.6933 378.647 75.24 378.793 75.84 378.94C76.44 379.073 77.0333 379.227 77.62 379.4C78.22 379.573 78.76 379.8 79.24 380.08C79.7333 380.36 80.1267 380.74 80.42 381.22C80.7267 381.7 80.88 382.307 80.88 383.04C80.88 383.787 80.6733 384.48 80.26 385.12C79.86 385.747 79.24 386.253 78.4 386.64C77.56 387.013 76.5 387.2 75.22 387.2ZM84.5028 387V374L85.6428 375.18H81.5428V373H87.1028V387H84.5028ZM95.72 387.2C94.6133 387.2 93.6133 386.92 92.72 386.36C91.84 385.8 91.1467 384.987 90.64 383.92C90.1333 382.84 89.88 381.533 89.88 380C89.88 378.467 90.1333 377.167 90.64 376.1C91.1467 375.02 91.84 374.2 92.72 373.64C93.6133 373.08 94.6133 372.8 95.72 372.8C96.84 372.8 97.84 373.08 98.72 373.64C99.6 374.2 100.293 375.02 100.8 376.1C101.32 377.167 101.58 378.467 101.58 380C101.58 381.533 101.32 382.84 100.8 383.92C100.293 384.987 99.6 385.8 98.72 386.36C97.84 386.92 96.84 387.2 95.72 387.2ZM95.72 384.94C96.3733 384.94 96.94 384.767 97.42 384.42C97.9 384.06 98.2733 383.513 98.54 382.78C98.82 382.047 98.96 381.12 98.96 380C98.96 378.867 98.82 377.94 98.54 377.22C98.2733 376.487 97.9 375.947 97.42 375.6C96.94 375.24 96.3733 375.06 95.72 375.06C95.0933 375.06 94.5333 375.24 94.04 375.6C93.56 375.947 93.18 376.487 92.9 377.22C92.6333 377.94 92.5 378.867 92.5 380C92.5 381.12 92.6333 382.047 92.9 382.78C93.18 383.513 93.56 384.06 94.04 384.42C94.5333 384.767 95.0933 384.94 95.72 384.94Z" fill="white"/>
<rect x="151" y="357" width="96.6667" height="46" rx="9" stroke="white" stroke-opacity="0.2" stroke-width="2"/>
<path d="M185.6 389.4V370.6H187.24V389.4H185.6ZM186.22 387.2C185.127 387.2 184.08 387.047 183.08 386.74C182.08 386.42 181.287 386.013 180.7 385.52L181.6 383.5C182.16 383.94 182.853 384.307 183.68 384.6C184.507 384.893 185.353 385.04 186.22 385.04C186.953 385.04 187.547 384.96 188 384.8C188.453 384.64 188.787 384.427 189 384.16C189.213 383.88 189.32 383.567 189.32 383.22C189.32 382.793 189.167 382.453 188.86 382.2C188.553 381.933 188.153 381.727 187.66 381.58C187.18 381.42 186.64 381.273 186.04 381.14C185.453 381.007 184.86 380.853 184.26 380.68C183.673 380.493 183.133 380.26 182.64 379.98C182.16 379.687 181.767 379.3 181.46 378.82C181.153 378.34 181 377.727 181 376.98C181 376.22 181.2 375.527 181.6 374.9C182.013 374.26 182.633 373.753 183.46 373.38C184.3 372.993 185.36 372.8 186.64 372.8C187.48 372.8 188.313 372.907 189.14 373.12C189.967 373.333 190.687 373.64 191.3 374.04L190.48 376.06C189.853 375.687 189.207 375.413 188.54 375.24C187.873 375.053 187.233 374.96 186.62 374.96C185.9 374.96 185.313 375.047 184.86 375.22C184.42 375.393 184.093 375.62 183.88 375.9C183.68 376.18 183.58 376.5 183.58 376.86C183.58 377.287 183.727 377.633 184.02 377.9C184.327 378.153 184.72 378.353 185.2 378.5C185.693 378.647 186.24 378.793 186.84 378.94C187.44 379.073 188.033 379.227 188.62 379.4C189.22 379.573 189.76 379.8 190.24 380.08C190.733 380.36 191.127 380.74 191.42 381.22C191.727 381.7 191.88 382.307 191.88 383.04C191.88 383.787 191.673 384.48 191.26 385.12C190.86 385.747 190.24 386.253 189.4 386.64C188.56 387.013 187.5 387.2 186.22 387.2ZM193.278 387V385.26L198.838 379.98C199.305 379.54 199.651 379.153 199.878 378.82C200.105 378.487 200.251 378.18 200.318 377.9C200.398 377.607 200.438 377.333 200.438 377.08C200.438 376.44 200.218 375.947 199.778 375.6C199.338 375.24 198.691 375.06 197.838 375.06C197.158 375.06 196.538 375.18 195.978 375.42C195.431 375.66 194.958 376.027 194.558 376.52L192.738 375.12C193.285 374.387 194.018 373.82 194.938 373.42C195.871 373.007 196.911 372.8 198.058 372.8C199.071 372.8 199.951 372.967 200.698 373.3C201.458 373.62 202.038 374.08 202.438 374.68C202.851 375.28 203.058 375.993 203.058 376.82C203.058 377.273 202.998 377.727 202.878 378.18C202.758 378.62 202.531 379.087 202.198 379.58C201.865 380.073 201.378 380.627 200.738 381.24L195.958 385.78L195.418 384.8H203.598V387H193.278ZM210.939 387.2C209.832 387.2 208.832 386.92 207.939 386.36C207.059 385.8 206.365 384.987 205.859 383.92C205.352 382.84 205.099 381.533 205.099 380C205.099 378.467 205.352 377.167 205.859 376.1C206.365 375.02 207.059 374.2 207.939 373.64C208.832 373.08 209.832 372.8 210.939 372.8C212.059 372.8 213.059 373.08 213.939 373.64C214.819 374.2 215.512 375.02 216.019 376.1C216.539 377.167 216.799 378.467 216.799 380C216.799 381.533 216.539 382.84 216.019 383.92C215.512 384.987 214.819 385.8 213.939 386.36C213.059 386.92 212.059 387.2 210.939 387.2ZM210.939 384.94C211.592 384.94 212.159 384.767 212.639 384.42C213.119 384.06 213.492 383.513 213.759 382.78C214.039 382.047 214.179 381.12 214.179 380C214.179 378.867 214.039 377.94 213.759 377.22C213.492 376.487 213.119 375.947 212.639 375.6C212.159 375.24 211.592 375.06 210.939 375.06C210.312 375.06 209.752 375.24 209.259 375.6C208.779 375.947 208.399 376.487 208.119 377.22C207.852 377.94 207.719 378.867 207.719 380C207.719 381.12 207.852 382.047 208.119 382.78C208.399 383.513 208.779 384.06 209.259 384.42C209.752 384.767 210.312 384.94 210.939 384.94Z" fill="white"/>
<rect x="266" y="357" width="95" height="46" rx="9" stroke="white" stroke-opacity="0.2" stroke-width="2"/>
<path d="M300.6 389.4V370.6H302.24V389.4H300.6ZM301.22 387.2C300.127 387.2 299.08 387.047 298.08 386.74C297.08 386.42 296.287 386.013 295.7 385.52L296.6 383.5C297.16 383.94 297.853 384.307 298.68 384.6C299.507 384.893 300.353 385.04 301.22 385.04C301.953 385.04 302.547 384.96 303 384.8C303.453 384.64 303.787 384.427 304 384.16C304.213 383.88 304.32 383.567 304.32 383.22C304.32 382.793 304.167 382.453 303.86 382.2C303.553 381.933 303.153 381.727 302.66 381.58C302.18 381.42 301.64 381.273 301.04 381.14C300.453 381.007 299.86 380.853 299.26 380.68C298.673 380.493 298.133 380.26 297.64 379.98C297.16 379.687 296.767 379.3 296.46 378.82C296.153 378.34 296 377.727 296 376.98C296 376.22 296.2 375.527 296.6 374.9C297.013 374.26 297.633 373.753 298.46 373.38C299.3 372.993 300.36 372.8 301.64 372.8C302.48 372.8 303.313 372.907 304.14 373.12C304.967 373.333 305.687 373.64 306.3 374.04L305.48 376.06C304.853 375.687 304.207 375.413 303.54 375.24C302.873 375.053 302.233 374.96 301.62 374.96C300.9 374.96 300.313 375.047 299.86 375.22C299.42 375.393 299.093 375.62 298.88 375.9C298.68 376.18 298.58 376.5 298.58 376.86C298.58 377.287 298.727 377.633 299.02 377.9C299.327 378.153 299.72 378.353 300.2 378.5C300.693 378.647 301.24 378.793 301.84 378.94C302.44 379.073 303.033 379.227 303.62 379.4C304.22 379.573 304.76 379.8 305.24 380.08C305.733 380.36 306.127 380.74 306.42 381.22C306.727 381.7 306.88 382.307 306.88 383.04C306.88 383.787 306.673 384.48 306.26 385.12C305.86 385.747 305.24 386.253 304.4 386.64C303.56 387.013 302.5 387.2 301.22 387.2ZM313.098 387.2C312.111 387.2 311.145 387.06 310.198 386.78C309.265 386.487 308.478 386.087 307.838 385.58L308.938 383.56C309.445 383.973 310.058 384.307 310.778 384.56C311.511 384.813 312.271 384.94 313.058 384.94C313.978 384.94 314.698 384.747 315.218 384.36C315.751 383.973 316.018 383.453 316.018 382.8C316.018 382.36 315.905 381.973 315.678 381.64C315.465 381.307 315.078 381.053 314.518 380.88C313.971 380.707 313.218 380.62 312.258 380.62H308.878L309.598 373H317.818V375.18H310.558L311.918 373.94L311.378 379.64L310.018 378.42H312.838C314.225 378.42 315.338 378.607 316.178 378.98C317.031 379.34 317.651 379.847 318.038 380.5C318.438 381.14 318.638 381.873 318.638 382.7C318.638 383.513 318.438 384.26 318.038 384.94C317.638 385.62 317.025 386.167 316.198 386.58C315.385 386.993 314.351 387.2 313.098 387.2ZM325.978 387.2C324.871 387.2 323.871 386.92 322.978 386.36C322.098 385.8 321.404 384.987 320.898 383.92C320.391 382.84 320.138 381.533 320.138 380C320.138 378.467 320.391 377.167 320.898 376.1C321.404 375.02 322.098 374.2 322.978 373.64C323.871 373.08 324.871 372.8 325.978 372.8C327.098 372.8 328.098 373.08 328.978 373.64C329.858 374.2 330.551 375.02 331.058 376.1C331.578 377.167 331.838 378.467 331.838 380C331.838 381.533 331.578 382.84 331.058 383.92C330.551 384.987 329.858 385.8 328.978 386.36C328.098 386.92 327.098 387.2 325.978 387.2ZM325.978 384.94C326.631 384.94 327.198 384.767 327.678 384.42C328.158 384.06 328.531 383.513 328.798 382.78C329.078 382.047 329.218 381.12 329.218 380C329.218 378.867 329.078 377.94 328.798 377.22C328.531 376.487 328.158 375.947 327.678 375.6C327.198 375.24 326.631 375.06 325.978 375.06C325.351 375.06 324.791 375.24 324.298 375.6C323.818 375.947 323.438 376.487 323.158 377.22C322.891 377.94 322.758 378.867 322.758 380C322.758 381.12 322.891 382.047 323.158 382.78C323.438 383.513 323.818 384.06 324.298 384.42C324.791 384.767 325.351 384.94 325.978 384.94Z" fill="white"/>
<rect x="36" y="432" width="326" height="48" rx="10" fill="white"/>
<path d="M174.641 461V451.2H178.673C179.541 451.2 180.283 451.34 180.899 451.62C181.525 451.9 182.005 452.301 182.341 452.824C182.677 453.347 182.845 453.967 182.845 454.686C182.845 455.405 182.677 456.025 182.341 456.548C182.005 457.071 181.525 457.472 180.899 457.752C180.283 458.032 179.541 458.172 178.673 458.172H175.649L176.461 457.318V461H174.641ZM176.461 457.514L175.649 456.632H178.589C179.392 456.632 179.994 456.464 180.395 456.128C180.806 455.783 181.011 455.302 181.011 454.686C181.011 454.061 180.806 453.58 180.395 453.244C179.994 452.908 179.392 452.74 178.589 452.74H175.649L176.461 451.844V457.514ZM189.032 461V459.488L188.934 459.166V456.52C188.934 456.007 188.78 455.61 188.472 455.33C188.164 455.041 187.698 454.896 187.072 454.896C186.652 454.896 186.237 454.961 185.826 455.092C185.425 455.223 185.084 455.405 184.804 455.638L184.118 454.364C184.52 454.056 184.996 453.827 185.546 453.678C186.106 453.519 186.685 453.44 187.282 453.44C188.365 453.44 189.2 453.701 189.788 454.224C190.386 454.737 190.684 455.535 190.684 456.618V461H189.032ZM186.68 461.098C186.12 461.098 185.63 461.005 185.21 460.818C184.79 460.622 184.464 460.356 184.23 460.02C184.006 459.675 183.894 459.287 183.894 458.858C183.894 458.438 183.992 458.06 184.188 457.724C184.394 457.388 184.725 457.122 185.182 456.926C185.64 456.73 186.246 456.632 187.002 456.632H189.172V457.794H187.128C186.531 457.794 186.13 457.892 185.924 458.088C185.719 458.275 185.616 458.508 185.616 458.788C185.616 459.105 185.742 459.357 185.994 459.544C186.246 459.731 186.596 459.824 187.044 459.824C187.474 459.824 187.856 459.726 188.192 459.53C188.538 459.334 188.785 459.045 188.934 458.662L189.228 459.712C189.06 460.151 188.757 460.491 188.318 460.734C187.889 460.977 187.343 461.098 186.68 461.098ZM193.41 463.814C193.046 463.814 192.682 463.753 192.318 463.632C191.954 463.511 191.65 463.343 191.408 463.128L192.108 461.84C192.285 461.999 192.486 462.125 192.71 462.218C192.934 462.311 193.162 462.358 193.396 462.358C193.713 462.358 193.97 462.279 194.166 462.12C194.362 461.961 194.544 461.695 194.712 461.322L195.146 460.342L195.286 460.132L198.114 453.524H199.794L196.294 461.602C196.06 462.162 195.799 462.605 195.51 462.932C195.23 463.259 194.912 463.487 194.558 463.618C194.212 463.749 193.83 463.814 193.41 463.814ZM194.95 461.266L191.576 453.524H193.396L196.14 459.978L194.95 461.266ZM206.912 461V452.74H203.664V451.2H211.98V452.74H208.732V461H206.912ZM213.178 461V453.524H214.928V461H213.178ZM214.06 452.292C213.734 452.292 213.463 452.189 213.248 451.984C213.043 451.779 212.94 451.531 212.94 451.242C212.94 450.943 213.043 450.696 213.248 450.5C213.463 450.295 213.734 450.192 214.06 450.192C214.387 450.192 214.653 450.29 214.858 450.486C215.073 450.673 215.18 450.911 215.18 451.2C215.18 451.508 215.078 451.769 214.872 451.984C214.667 452.189 214.396 452.292 214.06 452.292ZM221.369 461.098C220.762 461.098 220.207 460.958 219.703 460.678C219.208 460.398 218.812 459.978 218.513 459.418C218.224 458.849 218.079 458.13 218.079 457.262C218.079 456.385 218.219 455.666 218.499 455.106C218.788 454.546 219.18 454.131 219.675 453.86C220.17 453.58 220.734 453.44 221.369 453.44C222.106 453.44 222.755 453.599 223.315 453.916C223.884 454.233 224.332 454.677 224.659 455.246C224.995 455.815 225.163 456.487 225.163 457.262C225.163 458.037 224.995 458.713 224.659 459.292C224.332 459.861 223.884 460.305 223.315 460.622C222.755 460.939 222.106 461.098 221.369 461.098ZM217.225 463.716V453.524H218.891V455.288L218.835 457.276L218.975 459.264V463.716H217.225ZM221.173 459.6C221.593 459.6 221.966 459.507 222.293 459.32C222.629 459.133 222.895 458.863 223.091 458.508C223.287 458.153 223.385 457.738 223.385 457.262C223.385 456.777 223.287 456.361 223.091 456.016C222.895 455.661 222.629 455.391 222.293 455.204C221.966 455.017 221.593 454.924 221.173 454.924C220.753 454.924 220.375 455.017 220.039 455.204C219.703 455.391 219.437 455.661 219.241 456.016C219.045 456.361 218.947 456.777 218.947 457.262C218.947 457.738 219.045 458.153 219.241 458.508C219.437 458.863 219.703 459.133 220.039 459.32C220.375 459.507 220.753 459.6 221.173 459.6Z" fill="#0C0C0C"/>
<path d="M171 265H227" stroke="white" stroke-opacity="0.4" stroke-width="4" stroke-linecap="round"/>
</g>
<path d="M35.316 117V107.2H39.908C41.084 107.2 41.98 107.433 42.596 107.9C43.212 108.357 43.52 108.973 43.52 109.748C43.52 110.271 43.3987 110.719 43.156 111.092C42.9133 111.456 42.5867 111.741 42.176 111.946C41.7747 112.142 41.336 112.24 40.86 112.24L41.112 111.736C41.6627 111.736 42.1573 111.839 42.596 112.044C43.0347 112.24 43.38 112.529 43.632 112.912C43.8933 113.295 44.024 113.771 44.024 114.34C44.024 115.18 43.702 115.833 43.058 116.3C42.414 116.767 41.4573 117 40.188 117H35.316ZM37.136 115.572H40.076C40.7573 115.572 41.28 115.46 41.644 115.236C42.008 115.012 42.19 114.653 42.19 114.158C42.19 113.673 42.008 113.318 41.644 113.094C41.28 112.861 40.7573 112.744 40.076 112.744H36.996V111.33H39.712C40.3467 111.33 40.832 111.218 41.168 110.994C41.5133 110.77 41.686 110.434 41.686 109.986C41.686 109.529 41.5133 109.188 41.168 108.964C40.832 108.74 40.3467 108.628 39.712 108.628H37.136V115.572ZM45.7984 117V109.524H47.5484V117H45.7984ZM46.6804 108.292C46.3537 108.292 46.0831 108.189 45.8684 107.984C45.6631 107.779 45.5604 107.531 45.5604 107.242C45.5604 106.943 45.6631 106.696 45.8684 106.5C46.0831 106.295 46.3537 106.192 46.6804 106.192C47.0071 106.192 47.2731 106.29 47.4784 106.486C47.6931 106.673 47.8004 106.911 47.8004 107.2C47.8004 107.508 47.6977 107.769 47.4924 107.984C47.2871 108.189 47.0164 108.292 46.6804 108.292ZM49.8453 117V106.612H51.5953V117H49.8453ZM53.8921 117V106.612H55.6421V117H53.8921ZM60.5902 117L65.0002 107.2H66.7922L71.2162 117H69.3122L65.5182 108.166H66.2462L62.4662 117H60.5902ZM62.6202 114.732L63.1102 113.304H68.4022L68.8922 114.732H62.6202ZM81.7305 109.44C82.3278 109.44 82.8552 109.557 83.3125 109.79C83.7792 110.023 84.1432 110.383 84.4045 110.868C84.6658 111.344 84.7965 111.96 84.7965 112.716V117H83.0465V112.94C83.0465 112.277 82.9018 111.783 82.6125 111.456C82.3232 111.129 81.9078 110.966 81.3665 110.966C80.9838 110.966 80.6432 111.05 80.3445 111.218C80.0552 111.386 79.8265 111.633 79.6585 111.96C79.4998 112.287 79.4205 112.702 79.4205 113.206V117H77.6705V112.94C77.6705 112.277 77.5258 111.783 77.2365 111.456C76.9472 111.129 76.5318 110.966 75.9905 110.966C75.6078 110.966 75.2672 111.05 74.9685 111.218C74.6792 111.386 74.4505 111.633 74.2825 111.96C74.1238 112.287 74.0445 112.702 74.0445 113.206V117H72.2945V109.524H73.9605V111.512L73.6665 110.924C73.9185 110.439 74.2825 110.07 74.7585 109.818C75.2438 109.566 75.7945 109.44 76.4105 109.44C77.1105 109.44 77.7172 109.613 78.2305 109.958C78.7532 110.303 79.0985 110.826 79.2665 111.526L78.5805 111.288C78.8232 110.728 79.2245 110.28 79.7845 109.944C80.3445 109.608 80.9932 109.44 81.7305 109.44ZM90.4064 117.098C89.6411 117.098 88.9598 116.935 88.3624 116.608C87.7651 116.272 87.2938 115.815 86.9484 115.236C86.6031 114.657 86.4304 113.999 86.4304 113.262C86.4304 112.515 86.6031 111.857 86.9484 111.288C87.2938 110.709 87.7651 110.257 88.3624 109.93C88.9598 109.603 89.6411 109.44 90.4064 109.44C91.1811 109.44 91.8671 109.603 92.4644 109.93C93.0711 110.257 93.5424 110.705 93.8784 111.274C94.2238 111.843 94.3964 112.506 94.3964 113.262C94.3964 113.999 94.2238 114.657 93.8784 115.236C93.5424 115.815 93.0711 116.272 92.4644 116.608C91.8671 116.935 91.1811 117.098 90.4064 117.098ZM90.4064 115.6C90.8358 115.6 91.2184 115.507 91.5544 115.32C91.8904 115.133 92.1518 114.863 92.3384 114.508C92.5344 114.153 92.6324 113.738 92.6324 113.262C92.6324 112.777 92.5344 112.361 92.3384 112.016C92.1518 111.661 91.8904 111.391 91.5544 111.204C91.2184 111.017 90.8404 110.924 90.4204 110.924C89.9911 110.924 89.6084 111.017 89.2724 111.204C88.9458 111.391 88.6844 111.661 88.4884 112.016C88.2924 112.361 88.1944 112.777 88.1944 113.262C88.1944 113.738 88.2924 114.153 88.4884 114.508C88.6844 114.863 88.9458 115.133 89.2724 115.32C89.6084 115.507 89.9864 115.6 90.4064 115.6ZM99.2339 117.098C98.5992 117.098 98.0392 116.981 97.5539 116.748C97.0685 116.505 96.6905 116.141 96.4199 115.656C96.1492 115.161 96.0139 114.541 96.0139 113.794V109.524H97.7639V113.556C97.7639 114.228 97.9132 114.732 98.2119 115.068C98.5199 115.395 98.9539 115.558 99.5139 115.558C99.9245 115.558 100.279 115.474 100.578 115.306C100.886 115.138 101.124 114.886 101.292 114.55C101.469 114.214 101.558 113.799 101.558 113.304V109.524H103.308V117H101.642V114.984L101.936 115.6C101.684 116.085 101.315 116.459 100.83 116.72C100.345 116.972 99.8125 117.098 99.2339 117.098ZM109.841 109.44C110.439 109.44 110.971 109.557 111.437 109.79C111.913 110.023 112.287 110.383 112.557 110.868C112.828 111.344 112.963 111.96 112.963 112.716V117H111.213V112.94C111.213 112.277 111.055 111.783 110.737 111.456C110.429 111.129 109.995 110.966 109.435 110.966C109.025 110.966 108.661 111.05 108.343 111.218C108.026 111.386 107.779 111.638 107.601 111.974C107.433 112.301 107.349 112.716 107.349 113.22V117H105.599V109.524H107.265V111.54L106.971 110.924C107.233 110.448 107.611 110.084 108.105 109.832C108.609 109.571 109.188 109.44 109.841 109.44ZM117.997 117.098C117.176 117.098 116.541 116.888 116.093 116.468C115.645 116.039 115.421 115.409 115.421 114.578V107.872H117.171V114.536C117.171 114.891 117.26 115.166 117.437 115.362C117.624 115.558 117.88 115.656 118.207 115.656C118.599 115.656 118.926 115.553 119.187 115.348L119.677 116.594C119.472 116.762 119.22 116.888 118.921 116.972C118.622 117.056 118.314 117.098 117.997 117.098ZM114.189 110.98V109.58H119.173V110.98H114.189Z" fill="white"/>
<path d="M47.632 175.76V130.64H50.704V175.76H47.632ZM48.832 170.384C46.272 170.384 43.824 170 41.488 169.232C39.152 168.432 37.312 167.408 35.968 166.16L37.744 162.416C39.024 163.536 40.656 164.464 42.64 165.2C44.624 165.936 46.688 166.304 48.832 166.304C50.784 166.304 52.368 166.08 53.584 165.632C54.8 165.184 55.696 164.576 56.272 163.808C56.848 163.008 57.136 162.112 57.136 161.12C57.136 159.968 56.752 159.04 55.984 158.336C55.248 157.632 54.272 157.072 53.056 156.656C51.872 156.208 50.56 155.824 49.12 155.504C47.68 155.184 46.224 154.816 44.752 154.4C43.312 153.952 41.984 153.392 40.768 152.72C39.584 152.048 38.624 151.152 37.888 150.032C37.152 148.88 36.784 147.408 36.784 145.616C36.784 143.888 37.232 142.304 38.128 140.864C39.056 139.392 40.464 138.224 42.352 137.36C44.272 136.464 46.704 136.016 49.648 136.016C51.6 136.016 53.536 136.272 55.456 136.784C57.376 137.296 59.04 138.032 60.448 138.992L58.864 142.832C57.424 141.872 55.904 141.184 54.304 140.768C52.704 140.32 51.152 140.096 49.648 140.096C47.76 140.096 46.208 140.336 44.992 140.816C43.776 141.296 42.88 141.936 42.304 142.736C41.76 143.536 41.488 144.432 41.488 145.424C41.488 146.608 41.856 147.552 42.592 148.256C43.36 148.96 44.336 149.52 45.52 149.936C46.736 150.352 48.064 150.736 49.504 151.088C50.944 151.408 52.384 151.776 53.824 152.192C55.296 152.608 56.624 153.152 57.808 153.824C59.024 154.496 60 155.392 60.736 156.512C61.472 157.632 61.84 159.072 61.84 160.832C61.84 162.528 61.376 164.112 60.448 165.584C59.52 167.024 58.08 168.192 56.128 169.088C54.208 169.952 51.776 170.384 48.832 170.384ZM71.3118 170V138.32L73.3758 140.576H63.7278V136.4H76.0638V170H71.3118ZM89.0774 170V138.32L91.1414 140.576H81.4934V136.4H93.8294V170H89.0774ZM112.075 136.016C115.115 136.016 117.675 136.672 119.755 137.984C121.867 139.296 123.467 141.2 124.555 143.696C125.643 146.16 126.187 149.184 126.187 152.768C126.187 156.576 125.515 159.792 124.171 162.416C122.827 165.04 120.971 167.024 118.603 168.368C116.235 169.712 113.467 170.384 110.299 170.384C108.731 170.384 107.211 170.224 105.739 169.904C104.299 169.584 103.035 169.088 101.947 168.416L103.771 164.672C104.667 165.248 105.659 165.664 106.747 165.92C107.867 166.144 109.035 166.256 110.251 166.256C113.643 166.256 116.347 165.2 118.363 163.088C120.379 160.944 121.387 157.776 121.387 153.584C121.387 152.912 121.355 152.112 121.291 151.184C121.227 150.256 121.083 149.344 120.859 148.448L122.443 150.08C121.995 151.552 121.243 152.8 120.187 153.824C119.163 154.816 117.915 155.568 116.443 156.08C115.003 156.56 113.419 156.8 111.691 156.8C109.483 156.8 107.515 156.384 105.787 155.552C104.059 154.72 102.699 153.552 101.707 152.048C100.715 150.512 100.219 148.704 100.219 146.624C100.219 144.448 100.731 142.576 101.755 141.008C102.811 139.408 104.235 138.176 106.027 137.312C107.851 136.448 109.867 136.016 112.075 136.016ZM112.267 139.904C110.827 139.904 109.547 140.176 108.427 140.72C107.307 141.264 106.427 142.016 105.787 142.976C105.179 143.936 104.875 145.088 104.875 146.432C104.875 148.416 105.563 150 106.939 151.184C108.315 152.336 110.171 152.912 112.507 152.912C114.043 152.912 115.387 152.624 116.539 152.048C117.723 151.472 118.635 150.688 119.275 149.696C119.947 148.704 120.283 147.6 120.283 146.384C120.283 145.2 119.979 144.128 119.371 143.168C118.763 142.208 117.867 141.424 116.683 140.816C115.499 140.208 114.027 139.904 112.267 139.904ZM144.532 170.384C141.908 170.384 139.556 169.712 137.476 168.368C135.428 167.024 133.796 165.072 132.58 162.512C131.396 159.952 130.804 156.848 130.804 153.2C130.804 149.552 131.396 146.448 132.58 143.888C133.796 141.328 135.428 139.376 137.476 138.032C139.556 136.688 141.908 136.016 144.532 136.016C147.124 136.016 149.46 136.688 151.54 138.032C153.62 139.376 155.252 141.328 156.436 143.888C157.62 146.448 158.212 149.552 158.212 153.2C158.212 156.848 157.62 159.952 156.436 162.512C155.252 165.072 153.62 167.024 151.54 168.368C149.46 169.712 147.124 170.384 144.532 170.384ZM144.532 166.112C146.292 166.112 147.828 165.632 149.14 164.672C150.484 163.712 151.524 162.272 152.26 160.352C153.028 158.432 153.412 156.048 153.412 153.2C153.412 150.352 153.028 147.968 152.26 146.048C151.524 144.128 150.484 142.688 149.14 141.728C147.828 140.768 146.292 140.288 144.532 140.288C142.772 140.288 141.22 140.768 139.876 141.728C138.532 142.688 137.476 144.128 136.708 146.048C135.972 147.968 135.604 150.352 135.604 153.2C135.604 156.048 135.972 158.432 136.708 160.352C137.476 162.272 138.532 163.712 139.876 164.672C141.22 165.632 142.772 166.112 144.532 166.112ZM165.425 170.288C164.529 170.288 163.761 169.984 163.121 169.376C162.481 168.736 162.161 167.936 162.161 166.976C162.161 166.016 162.481 165.232 163.121 164.624C163.761 164.016 164.529 163.712 165.425 163.712C166.289 163.712 167.025 164.016 167.633 164.624C168.273 165.232 168.593 166.016 168.593 166.976C168.593 167.936 168.273 168.736 167.633 169.376C167.025 169.984 166.289 170.288 165.425 170.288ZM178.331 170L192.587 138.416L193.835 140.576H173.867L176.267 138.224V146.576H171.659V136.4H197.003V139.664L183.419 170H178.331ZM211.215 170.384C208.847 170.384 206.543 170.016 204.303 169.28C202.095 168.544 200.287 167.552 198.879 166.304L201.087 162.512C202.207 163.568 203.663 164.432 205.455 165.104C207.247 165.776 209.151 166.112 211.167 166.112C213.727 166.112 215.695 165.568 217.071 164.48C218.447 163.392 219.135 161.936 219.135 160.112C219.135 158.864 218.831 157.776 218.223 156.848C217.615 155.92 216.559 155.216 215.055 154.736C213.583 154.224 211.551 153.968 208.959 153.968H201.327L203.103 136.4H222.062V140.576H204.879L207.375 138.224L205.983 152.096L203.487 149.792H209.967C213.327 149.792 216.031 150.224 218.079 151.088C220.127 151.952 221.615 153.152 222.543 154.688C223.471 156.192 223.935 157.936 223.935 159.92C223.935 161.84 223.471 163.6 222.543 165.2C221.615 166.768 220.207 168.032 218.319 168.992C216.463 169.92 214.095 170.384 211.215 170.384Z" fill="white"/>
<path opacity="0.4" d="M344.16 165.082L340.122 169.122C339.844 169.401 339.513 169.622 339.149 169.773C338.785 169.924 338.395 170.001 338 170.001C337.606 170.001 337.216 169.924 336.852 169.773C336.488 169.622 336.157 169.401 335.878 169.122L331.84 165.082C331.33 164.571 330.653 164.261 329.932 164.209C329.212 164.157 328.497 164.367 327.918 164.8L325.2 166.842C324.903 167.065 324.55 167.201 324.18 167.234C323.81 167.267 323.438 167.197 323.106 167.031C322.774 166.865 322.494 166.609 322.299 166.293C322.104 165.978 322 165.613 322 165.242V140C321.884 139.185 321.959 138.354 322.22 137.573C322.48 136.792 322.919 136.082 323.501 135.5C324.083 134.918 324.793 134.48 325.574 134.219C326.355 133.959 327.185 133.884 328 134H348C348.815 133.884 349.646 133.959 350.427 134.219C351.208 134.48 351.918 134.918 352.5 135.5C353.082 136.082 353.521 136.792 353.781 137.573C354.042 138.354 354.117 139.185 354 140V165.242C354 165.613 353.897 165.978 353.702 166.293C353.506 166.609 353.227 166.865 352.895 167.031C352.563 167.197 352.191 167.267 351.821 167.234C351.451 167.201 351.098 167.065 350.8 166.842L348.082 164.8C347.504 164.367 346.789 164.157 346.069 164.209C345.348 164.261 344.671 164.571 344.16 165.082Z" fill="white"/>
<path d="M346 147.5H330C329.602 147.5 329.221 147.342 328.939 147.061C328.658 146.779 328.5 146.398 328.5 146C328.5 145.602 328.658 145.221 328.939 144.939C329.221 144.658 329.602 144.5 330 144.5H346C346.398 144.5 346.779 144.658 347.061 144.939C347.342 145.221 347.5 145.602 347.5 146C347.5 146.398 347.342 146.779 347.061 147.061C346.779 147.342 346.398 147.5 346 147.5ZM341.5 154C341.5 153.602 341.342 153.221 341.061 152.939C340.779 152.658 340.398 152.5 340 152.5H330C329.602 152.5 329.221 152.658 328.939 152.939C328.658 153.221 328.5 153.602 328.5 154C328.5 154.398 328.658 154.779 328.939 155.061C329.221 155.342 329.602 155.5 330 155.5H340C340.398 155.5 340.779 155.342 341.061 155.061C341.342 154.779 341.5 154.398 341.5 154Z" fill="white"/>
<path d="M35.128 210V201.6H38.8C39.712 201.6 40.512 201.776 41.2 202.128C41.888 202.48 42.424 202.968 42.808 203.592C43.192 204.216 43.384 204.952 43.384 205.8C43.384 206.64 43.192 207.376 42.808 208.008C42.424 208.632 41.888 209.12 41.2 209.472C40.512 209.824 39.712 210 38.8 210H35.128ZM36.688 208.68H38.728C39.36 208.68 39.904 208.56 40.36 208.32C40.824 208.08 41.18 207.744 41.428 207.312C41.684 206.88 41.812 206.376 41.812 205.8C41.812 205.216 41.684 204.712 41.428 204.288C41.18 203.856 40.824 203.52 40.36 203.28C39.904 203.04 39.36 202.92 38.728 202.92H36.688V208.68ZM47.6101 210.084C47.0661 210.084 46.5861 209.984 46.1701 209.784C45.7541 209.576 45.4301 209.264 45.1981 208.848C44.9661 208.424 44.8501 207.892 44.8501 207.252V203.592H46.3501V207.048C46.3501 207.624 46.4781 208.056 46.7341 208.344C46.9981 208.624 47.3701 208.764 47.8501 208.764C48.2021 208.764 48.5061 208.692 48.7621 208.548C49.0261 208.404 49.2301 208.188 49.3741 207.9C49.5261 207.612 49.6021 207.256 49.6021 206.832V203.592H51.1021V210H49.6741V208.272L49.9261 208.8C49.7101 209.216 49.3941 209.536 48.9781 209.76C48.5621 209.976 48.1061 210.084 47.6101 210.084ZM56.078 210.084C55.366 210.084 54.742 209.944 54.206 209.664C53.678 209.376 53.266 208.984 52.97 208.488C52.682 207.992 52.538 207.428 52.538 206.796C52.538 206.156 52.678 205.592 52.958 205.104C53.246 204.608 53.638 204.22 54.134 203.94C54.638 203.66 55.21 203.52 55.85 203.52C56.474 203.52 57.03 203.656 57.518 203.928C58.006 204.2 58.39 204.584 58.67 205.08C58.95 205.576 59.09 206.16 59.09 206.832C59.09 206.896 59.086 206.968 59.078 207.048C59.078 207.128 59.074 207.204 59.066 207.276H53.726V206.28H58.274L57.686 206.592C57.694 206.224 57.618 205.9 57.458 205.62C57.298 205.34 57.078 205.12 56.798 204.96C56.526 204.8 56.21 204.72 55.85 204.72C55.482 204.72 55.158 204.8 54.878 204.96C54.606 205.12 54.39 205.344 54.23 205.632C54.078 205.912 54.002 206.244 54.002 206.628V206.868C54.002 207.252 54.09 207.592 54.266 207.888C54.442 208.184 54.69 208.412 55.01 208.572C55.33 208.732 55.698 208.812 56.114 208.812C56.474 208.812 56.798 208.756 57.086 208.644C57.374 208.532 57.63 208.356 57.854 208.116L58.658 209.04C58.37 209.376 58.006 209.636 57.566 209.82C57.134 209.996 56.638 210.084 56.078 210.084ZM67.9273 210.12C67.2713 210.12 66.6673 210.012 66.1153 209.796C65.5633 209.58 65.0833 209.28 64.6753 208.896C64.2673 208.504 63.9513 208.048 63.7273 207.528C63.5033 207 63.3913 206.424 63.3913 205.8C63.3913 205.176 63.5033 204.604 63.7273 204.084C63.9513 203.556 64.2673 203.1 64.6753 202.716C65.0833 202.324 65.5633 202.02 66.1153 201.804C66.6673 201.588 67.2673 201.48 67.9153 201.48C68.5713 201.48 69.1713 201.588 69.7153 201.804C70.2673 202.02 70.7473 202.324 71.1553 202.716C71.5633 203.1 71.8793 203.556 72.1033 204.084C72.3273 204.604 72.4393 205.176 72.4393 205.8C72.4393 206.424 72.3273 207 72.1033 207.528C71.8793 208.056 71.5633 208.512 71.1553 208.896C70.7473 209.28 70.2673 209.58 69.7153 209.796C69.1713 210.012 68.5753 210.12 67.9273 210.12ZM67.9153 208.752C68.3393 208.752 68.7313 208.68 69.0913 208.536C69.4513 208.392 69.7633 208.188 70.0273 207.924C70.2913 207.652 70.4953 207.34 70.6393 206.988C70.7913 206.628 70.8673 206.232 70.8673 205.8C70.8673 205.368 70.7913 204.976 70.6393 204.624C70.4953 204.264 70.2913 203.952 70.0273 203.688C69.7633 203.416 69.4513 203.208 69.0913 203.064C68.7313 202.92 68.3393 202.848 67.9153 202.848C67.4913 202.848 67.0993 202.92 66.7393 203.064C66.3873 203.208 66.0753 203.416 65.8033 203.688C65.5393 203.952 65.3313 204.264 65.1793 204.624C65.0353 204.976 64.9633 205.368 64.9633 205.8C64.9633 206.224 65.0353 206.616 65.1793 206.976C65.3313 207.336 65.5393 207.652 65.8033 207.924C66.0673 208.188 66.3793 208.392 66.7393 208.536C67.0993 208.68 67.4913 208.752 67.9153 208.752ZM77.5848 203.52C78.0968 203.52 78.5528 203.62 78.9528 203.82C79.3608 204.02 79.6808 204.328 79.9128 204.744C80.1448 205.152 80.2608 205.68 80.2608 206.328V210H78.7608V206.52C78.7608 205.952 78.6248 205.528 78.3528 205.248C78.0888 204.968 77.7168 204.828 77.2368 204.828C76.8848 204.828 76.5728 204.9 76.3008 205.044C76.0288 205.188 75.8168 205.404 75.6648 205.692C75.5208 205.972 75.4488 206.328 75.4488 206.76V210H73.9488V203.592H75.3768V205.32L75.1248 204.792C75.3488 204.384 75.6728 204.072 76.0968 203.856C76.5288 203.632 77.0248 203.52 77.5848 203.52ZM84.4361 210L88.2161 201.6H89.7521L93.5441 210H91.9121L88.6601 202.428H89.2841L86.0441 210H84.4361ZM86.1761 208.056L86.5961 206.832H91.1321L91.5521 208.056H86.1761ZM98.0204 210.084C97.5004 210.084 97.0244 209.964 96.5924 209.724C96.1684 209.484 95.8284 209.124 95.5724 208.644C95.3244 208.156 95.2004 207.54 95.2004 206.796C95.2004 206.044 95.3204 205.428 95.5604 204.948C95.8084 204.468 96.1444 204.112 96.5684 203.88C96.9924 203.64 97.4764 203.52 98.0204 203.52C98.6524 203.52 99.2084 203.656 99.6884 203.928C100.176 204.2 100.56 204.58 100.84 205.068C101.128 205.556 101.272 206.132 101.272 206.796C101.272 207.46 101.128 208.04 100.84 208.536C100.56 209.024 100.176 209.404 99.6884 209.676C99.2084 209.948 98.6524 210.084 98.0204 210.084ZM94.4684 212.328V203.592H95.8964V205.104L95.8484 206.808L95.9684 208.512V212.328H94.4684ZM97.8524 208.8C98.2124 208.8 98.5324 208.72 98.8124 208.56C99.1004 208.4 99.3284 208.168 99.4964 207.864C99.6644 207.56 99.7484 207.204 99.7484 206.796C99.7484 206.38 99.6644 206.024 99.4964 205.728C99.3284 205.424 99.1004 205.192 98.8124 205.032C98.5324 204.872 98.2124 204.792 97.8524 204.792C97.4924 204.792 97.1684 204.872 96.8804 205.032C96.5924 205.192 96.3644 205.424 96.1964 205.728C96.0284 206.024 95.9444 206.38 95.9444 206.796C95.9444 207.204 96.0284 207.56 96.1964 207.864C96.3644 208.168 96.5924 208.4 96.8804 208.56C97.1684 208.72 97.4924 208.8 97.8524 208.8ZM102.695 210V203.592H104.123V205.356L103.955 204.84C104.147 204.408 104.447 204.08 104.855 203.856C105.271 203.632 105.787 203.52 106.403 203.52V204.948C106.339 204.932 106.279 204.924 106.223 204.924C106.167 204.916 106.111 204.912 106.055 204.912C105.487 204.912 105.035 205.08 104.699 205.416C104.363 205.744 104.195 206.236 104.195 206.892V210H102.695ZM107.675 210V203.592H109.175V210H107.675ZM108.431 202.536C108.151 202.536 107.919 202.448 107.735 202.272C107.559 202.096 107.471 201.884 107.471 201.636C107.471 201.38 107.559 201.168 107.735 201C107.919 200.824 108.151 200.736 108.431 200.736C108.711 200.736 108.939 200.82 109.115 200.988C109.299 201.148 109.391 201.352 109.391 201.6C109.391 201.864 109.303 202.088 109.127 202.272C108.951 202.448 108.719 202.536 108.431 202.536ZM111.144 210V201.096H112.644V210H111.144ZM120.977 210.12C120.313 210.12 119.713 209.952 119.177 209.616C118.649 209.28 118.233 208.792 117.929 208.152C117.625 207.504 117.473 206.72 117.473 205.8C117.473 204.88 117.625 204.1 117.929 203.46C118.233 202.812 118.649 202.32 119.177 201.984C119.713 201.648 120.313 201.48 120.977 201.48C121.649 201.48 122.249 201.648 122.777 201.984C123.305 202.32 123.721 202.812 124.025 203.46C124.337 204.1 124.493 204.88 124.493 205.8C124.493 206.72 124.337 207.504 124.025 208.152C123.721 208.792 123.305 209.28 122.777 209.616C122.249 209.952 121.649 210.12 120.977 210.12ZM120.977 208.764C121.369 208.764 121.709 208.66 121.997 208.452C122.285 208.236 122.509 207.908 122.669 207.468C122.837 207.028 122.921 206.472 122.921 205.8C122.921 205.12 122.837 204.564 122.669 204.132C122.509 203.692 122.285 203.368 121.997 203.16C121.709 202.944 121.369 202.836 120.977 202.836C120.601 202.836 120.265 202.944 119.969 203.16C119.681 203.368 119.453 203.692 119.285 204.132C119.125 204.564 119.045 205.12 119.045 205.8C119.045 206.472 119.125 207.028 119.285 207.468C119.453 207.908 119.681 208.236 119.969 208.452C120.265 208.66 120.601 208.764 120.977 208.764ZM128.07 210.12C127.478 210.12 126.898 210.036 126.33 209.868C125.77 209.692 125.298 209.452 124.914 209.148L125.586 207.936C125.89 208.184 126.258 208.384 126.69 208.536C127.122 208.688 127.574 208.764 128.046 208.764C128.606 208.764 129.042 208.652 129.354 208.428C129.666 208.196 129.822 207.884 129.822 207.492C129.822 207.108 129.678 206.804 129.39 206.58C129.102 206.356 128.638 206.244 127.998 206.244H127.23V205.176L129.63 202.32L129.834 202.908H125.322V201.6H131.046V202.644L128.646 205.5L127.83 205.02H128.298C129.33 205.02 130.102 205.252 130.614 205.716C131.134 206.172 131.394 206.76 131.394 207.48C131.394 207.952 131.274 208.388 131.034 208.788C130.794 209.188 130.426 209.512 129.93 209.76C129.442 210 128.822 210.12 128.07 210.12ZM132.475 211.812L133.171 209.16L133.375 210.048C133.095 210.048 132.859 209.964 132.667 209.796C132.483 209.62 132.391 209.384 132.391 209.088C132.391 208.784 132.483 208.544 132.667 208.368C132.859 208.184 133.091 208.092 133.363 208.092C133.643 208.092 133.875 208.184 134.059 208.368C134.243 208.552 134.335 208.792 134.335 209.088C134.335 209.168 134.327 209.256 134.311 209.352C134.295 209.44 134.267 209.544 134.227 209.664C134.195 209.784 134.139 209.936 134.059 210.12L133.447 211.812H132.475ZM138.553 210V208.956L141.889 205.788C142.169 205.524 142.377 205.292 142.513 205.092C142.649 204.892 142.737 204.708 142.777 204.54C142.825 204.364 142.849 204.2 142.849 204.048C142.849 203.664 142.717 203.368 142.453 203.16C142.189 202.944 141.801 202.836 141.289 202.836C140.881 202.836 140.509 202.908 140.173 203.052C139.845 203.196 139.561 203.416 139.321 203.712L138.229 202.872C138.557 202.432 138.997 202.092 139.549 201.852C140.109 201.604 140.733 201.48 141.421 201.48C142.029 201.48 142.557 201.58 143.005 201.78C143.461 201.972 143.809 202.248 144.049 202.608C144.297 202.968 144.421 203.396 144.421 203.892C144.421 204.164 144.385 204.436 144.313 204.708C144.241 204.972 144.105 205.252 143.905 205.548C143.705 205.844 143.413 206.176 143.029 206.544L140.161 209.268L139.837 208.68H144.745V210H138.553ZM149.149 210.12C148.485 210.12 147.885 209.952 147.349 209.616C146.821 209.28 146.405 208.792 146.101 208.152C145.797 207.504 145.645 206.72 145.645 205.8C145.645 204.88 145.797 204.1 146.101 203.46C146.405 202.812 146.821 202.32 147.349 201.984C147.885 201.648 148.485 201.48 149.149 201.48C149.821 201.48 150.421 201.648 150.949 201.984C151.477 202.32 151.893 202.812 152.197 203.46C152.509 204.1 152.665 204.88 152.665 205.8C152.665 206.72 152.509 207.504 152.197 208.152C151.893 208.792 151.477 209.28 150.949 209.616C150.421 209.952 149.821 210.12 149.149 210.12ZM149.149 208.764C149.541 208.764 149.881 208.66 150.169 208.452C150.457 208.236 150.681 207.908 150.841 207.468C151.009 207.028 151.093 206.472 151.093 205.8C151.093 205.12 151.009 204.564 150.841 204.132C150.681 203.692 150.457 203.368 150.169 203.16C149.881 202.944 149.541 202.836 149.149 202.836C148.773 202.836 148.437 202.944 148.141 203.16C147.853 203.368 147.625 203.692 147.457 204.132C147.297 204.564 147.217 205.12 147.217 205.8C147.217 206.472 147.297 207.028 147.457 207.468C147.625 207.908 147.853 208.236 148.141 208.452C148.437 208.66 148.773 208.764 149.149 208.764ZM153.6 210V208.956L156.936 205.788C157.216 205.524 157.424 205.292 157.56 205.092C157.696 204.892 157.784 204.708 157.824 204.54C157.872 204.364 157.896 204.2 157.896 204.048C157.896 203.664 157.764 203.368 157.5 203.16C157.236 202.944 156.848 202.836 156.336 202.836C155.928 202.836 155.556 202.908 155.22 203.052C154.892 203.196 154.608 203.416 154.368 203.712L153.276 202.872C153.604 202.432 154.044 202.092 154.596 201.852C155.156 201.604 155.78 201.48 156.468 201.48C157.076 201.48 157.604 201.58 158.052 201.78C158.508 201.972 158.856 202.248 159.096 202.608C159.344 202.968 159.468 203.396 159.468 203.892C159.468 204.164 159.432 204.436 159.36 204.708C159.288 204.972 159.152 205.252 158.952 205.548C158.752 205.844 158.46 206.176 158.076 206.544L155.208 209.268L154.884 208.68H159.792V210H153.6ZM160.396 208.092V207.012L164.536 201.6H166.204L162.124 207.012L161.344 206.772H168.004V208.092H160.396ZM165.004 210V208.092L165.052 206.772V205.08H166.516V210H165.004Z" fill="white"/>
<path d="M37.6641 30.6436C35.5244 30.6436 34 32.1064 34 34.1094V34.123C34 35.9961 35.3262 37.377 37.2197 37.377C38.5732 37.377 39.4346 36.6865 39.7969 35.9072H39.9336C39.9336 35.9824 39.9268 36.0576 39.9268 36.1328C39.8516 38.0195 39.1885 39.5508 37.623 39.5508C36.7549 39.5508 36.1465 39.0996 35.8867 38.4092L35.8662 38.3408H34.1299L34.1436 38.416C34.458 39.9268 35.8115 41 37.623 41C40.1045 41 41.6016 39.0312 41.6016 35.709V35.6953C41.6016 32.1406 39.7695 30.6436 37.6641 30.6436ZM37.6572 36.0234C36.5361 36.0234 35.7227 35.2031 35.7227 34.0615V34.0479C35.7227 32.9473 36.5908 32.0791 37.6777 32.0791C38.7715 32.0791 39.626 32.9609 39.626 34.0889V34.1025C39.626 35.2168 38.7715 36.0234 37.6572 36.0234Z" fill="white"/>
<path d="M44.4251 34.3623C45.054 34.3623 45.512 33.8838 45.512 33.2822C45.512 32.6738 45.054 32.2021 44.4251 32.2021C43.803 32.2021 43.3382 32.6738 43.3382 33.2822C43.3382 33.8838 43.803 34.3623 44.4251 34.3623ZM44.4251 39.4346C45.054 39.4346 45.512 38.9629 45.512 38.3545C45.512 37.7461 45.054 37.2744 44.4251 37.2744C43.803 37.2744 43.3382 37.7461 43.3382 38.3545C43.3382 38.9629 43.803 39.4346 44.4251 39.4346Z" fill="white"/>
<path d="M52.0337 40.7539H53.7222V38.8604H55.0484V37.4043H53.7222V30.8896H51.2271C49.8873 32.9268 48.4859 35.1963 47.2076 37.418V38.8604H52.0337V40.7539ZM48.8482 37.4453V37.3428C49.8052 35.668 50.9468 33.8428 51.9586 32.2979H52.0611V37.4453H48.8482Z" fill="white"/>
<path d="M58.8563 40.7539H60.62V30.8896H58.8631L56.286 32.7012V34.3623L58.7401 32.626H58.8563V40.7539Z" fill="white"/>
<path fill-rule="evenodd" clip-rule="evenodd" d="M319.399 29.6666H318.399C317.847 29.6666 317.399 30.1143 317.399 30.6666V39.3333C317.399 39.8856 317.847 40.3333 318.399 40.3333H319.399C319.952 40.3333 320.399 39.8856 320.399 39.3333V30.6666C320.399 30.1143 319.952 29.6666 319.399 29.6666ZM313.733 31.9999H314.733C315.285 31.9999 315.733 32.4476 315.733 32.9999V39.3333C315.733 39.8855 315.285 40.3333 314.733 40.3333H313.733C313.18 40.3333 312.733 39.8855 312.733 39.3333V32.9999C312.733 32.4476 313.18 31.9999 313.733 31.9999ZM310.066 34.3334H309.066C308.514 34.3334 308.066 34.7811 308.066 35.3334V39.3334C308.066 39.8857 308.514 40.3334 309.066 40.3334H310.066C310.618 40.3334 311.066 39.8857 311.066 39.3334V35.3334C311.066 34.7811 310.618 34.3334 310.066 34.3334ZM305.399 36.3334H304.399C303.847 36.3334 303.399 36.7811 303.399 37.3334V39.3334C303.399 39.8857 303.847 40.3334 304.399 40.3334H305.399C305.952 40.3334 306.399 39.8857 306.399 39.3334V37.3334C306.399 36.7811 305.952 36.3334 305.399 36.3334Z" fill="white"/>
<path fill-rule="evenodd" clip-rule="evenodd" d="M333.036 31.7946C335.252 31.7947 337.383 32.6461 338.989 34.1729C339.11 34.2908 339.303 34.2893 339.422 34.1696L340.578 33.0029C340.639 32.9422 340.672 32.86 340.672 32.7744C340.671 32.6888 340.637 32.6069 340.576 32.5469C336.361 28.5074 329.711 28.5074 325.496 32.5469C325.435 32.6069 325.4 32.6887 325.399 32.7743C325.399 32.8599 325.432 32.9422 325.493 33.0029L326.649 34.1696C326.768 34.2895 326.961 34.291 327.082 34.1729C328.689 32.646 330.82 31.7946 333.036 31.7946ZM333.036 35.5902C334.254 35.5901 335.428 36.0426 336.33 36.8598C336.452 36.9758 336.644 36.9733 336.763 36.8542L337.918 35.6875C337.979 35.6263 338.013 35.5433 338.012 35.457C338.011 35.3707 337.975 35.2884 337.913 35.2285C335.165 32.6721 330.909 32.6721 328.161 35.2285C328.099 35.2884 328.064 35.3708 328.063 35.4571C328.062 35.5434 328.096 35.6264 328.157 35.6875L329.311 36.8542C329.43 36.9733 329.622 36.9758 329.744 36.8598C330.646 36.0431 331.819 35.5907 333.036 35.5902ZM335.349 38.1439C335.351 38.2305 335.317 38.3139 335.255 38.3745L333.258 40.3901C333.199 40.4494 333.119 40.4827 333.036 40.4827C332.953 40.4827 332.873 40.4494 332.814 40.3901L330.817 38.3745C330.755 38.3138 330.721 38.2304 330.723 38.1439C330.725 38.0574 330.762 37.9754 330.826 37.9175C332.102 36.8386 333.97 36.8386 335.246 37.9175C335.31 37.9755 335.347 38.0574 335.349 38.1439Z" fill="white"/>
<path opacity="0.4" fill-rule="evenodd" clip-rule="evenodd" d="M348.339 30.3333H365.005C365.926 30.3333 366.672 31.0795 366.672 32V38C366.672 38.9205 365.926 39.6667 365.005 39.6667H348.339C347.418 39.6667 346.672 38.9205 346.672 38V32C346.672 31.0795 347.418 30.3333 348.339 30.3333ZM345.672 32C345.672 30.5272 346.866 29.3333 348.339 29.3333H365.005C366.478 29.3333 367.672 30.5272 367.672 32V38C367.672 39.4728 366.478 40.6667 365.005 40.6667H348.339C346.866 40.6667 345.672 39.4728 345.672 38V32ZM370 35.0001C370 35.8732 369.477 36.6613 368.672 37.0001V33.0001C369.477 33.3388 370 34.1269 370 35.0001Z" fill="white"/>
<rect x="347.672" y="31.3333" width="18" height="7.33333" rx="1.33333" fill="white"/>
</g>
<rect x="2" y="2" width="394" height="512" rx="34" stroke="white" stroke-width="4"/>
<defs>
<filter id="filter0_b_202_214" x="-16" y="229" width="430" height="303" filterUnits="userSpaceOnUse" color-interpolation-filters="sRGB">
<feFlood flood-opacity="0" result="BackgroundImageFix"/>
<feGaussianBlur in="BackgroundImageFix" stdDeviation="10"/>
<feComposite in2="SourceAlpha" operator="in" result="effect1_backgroundBlur_202_214"/>
<feBlend mode="normal" in="SourceGraphic" in2="effect1_backgroundBlur_202_214" result="shape"/>
</filter>
<clipPath id="clip0_202_214">
<rect x="4" y="4" width="390" height="508" rx="32" fill="white"/>
</clipPath>
</defs>
</svg>
