<svg width="141" height="44" viewBox="0 0 141 44" fill="none" xmlns="http://www.w3.org/2000/svg">
<g clip-path="url(#clip0_202_137)">
<mask id="mask0_202_137" style="mask-type:luminance" maskUnits="userSpaceOnUse" x="0" y="0" width="105" height="44">
<path d="M104.5 0H0V44H104.5V0Z" fill="white"/>
</mask>
<g mask="url(#mask0_202_137)">
<path d="M26.5382 10.6062V44H17.8545V31.9742C17.14 33.0352 16.1376 33.8789 14.8545 34.5092C13.5677 35.1392 12.1637 35.4541 10.6352 35.4541C8.55225 35.4541 6.70744 34.9401 5.09721 33.9152C3.487 32.8905 2.23581 31.424 1.34006 29.5155C0.447873 27.6108 0 25.3984 0 22.8781C0 20.3614 0.454982 18.1236 1.36495 16.1682C2.27491 14.2128 3.53677 12.6992 5.14698 11.6201C6.75719 10.5446 8.58778 10.0051 10.6352 10.0051C12.2277 10.0051 13.685 10.3382 15.0002 10.9973C16.3189 11.6599 17.3178 12.5724 18.0002 13.7312V10.5989H26.5382V10.6062ZM16.781 27.2777C17.595 26.2348 18.0002 24.7357 18.0002 22.7803C18.0002 20.7923 17.5914 19.2679 16.781 18.2069C15.967 17.1459 14.7976 16.6172 13.2691 16.6172C11.8047 16.6172 10.6601 17.164 9.82833 18.2576C8.99657 19.3511 8.58424 20.8901 8.58424 22.8781C8.58424 24.8009 8.98945 26.2747 9.80345 27.2995C10.6174 28.3277 11.7691 28.8384 13.2656 28.8384C14.7976 28.842 15.967 28.3206 16.781 27.2777Z" fill="white"/>
<path d="M72.7329 10.6062V35.0559H64.2945V31.7752C63.5443 32.9665 62.5953 33.8792 61.4403 34.5092C60.285 35.1392 58.959 35.4541 57.4627 35.4541C54.3736 35.4541 52.081 34.5851 50.5847 32.8435C49.0882 31.1053 48.3418 28.462 48.3418 24.9168V10.6062H57.0255V25.116C57.0255 27.5022 58.0314 28.6935 60.0505 28.6935C61.2198 28.6935 62.1795 28.2629 62.9294 27.4009C63.6761 26.5391 64.0528 25.4129 64.0528 24.0224V10.6062H72.7329Z" fill="white"/>
<path d="M99.2179 11.5513C100.81 12.5797 102.055 14.0463 102.95 15.951C103.842 17.8557 104.29 20.0681 104.29 22.5848C104.29 25.1015 103.842 27.3393 102.95 29.2946C102.055 31.2502 100.803 32.7638 99.1932 33.8429C97.5828 34.9184 95.7524 35.4579 93.7047 35.4579C92.1125 35.4579 90.655 35.1246 89.3399 34.4657C88.021 33.803 87.0222 32.8941 86.34 31.7317V35.0595H77.8018V0.0217285H86.4857V13.4886C87.2002 12.4276 88.199 11.5839 89.4857 10.9538C90.7688 10.3238 92.1763 10.0087 93.7047 10.0087C95.7879 10.0087 97.6254 10.5229 99.2179 11.5513ZM94.4868 27.2271C95.3008 26.1516 95.7062 24.6018 95.7062 22.5812C95.7062 20.662 95.308 19.1846 94.5119 18.1598C93.7155 17.135 92.5673 16.6209 91.0746 16.6209C89.5462 16.6209 88.373 17.1423 87.5626 18.1852C86.7486 19.228 86.3435 20.7272 86.3435 22.6826C86.3435 24.6706 86.7486 26.195 87.5626 27.256C88.3766 28.317 89.5319 28.8456 91.0249 28.8456C92.5211 28.842 93.6764 28.306 94.4868 27.2271Z" fill="white"/>
<path d="M30.6509 0H39.8678V25.402C39.8678 25.402 39.818 27.6436 42.0183 27.6977C44.2186 27.7522 45.1426 27.6977 45.1426 27.6977V34.7012C43.6603 34.9473 42.139 35.0559 40.6392 35.0559C36.1817 35.0559 31.0452 32.8653 30.6542 27.8028C30.6509 23.367 30.6509 0 30.6509 0Z" fill="white"/>
</g>
<path d="M122.119 14.3669C123.108 14.3669 123.91 13.6132 123.91 12.6834C123.91 11.7537 123.108 11 122.119 11C121.13 11 120.328 11.7537 120.328 12.6834C120.328 13.6132 121.13 14.3669 122.119 14.3669Z" fill="white"/>
<path d="M117.291 18.9955C118.28 18.9955 119.082 18.2418 119.082 17.3121C119.082 16.3823 118.28 15.6286 117.291 15.6286C116.302 15.6286 115.5 16.3823 115.5 17.3121C115.5 18.2418 116.302 18.9955 117.291 18.9955Z" fill="white"/>
<path d="M117.291 14.3669C118.28 14.3669 119.082 13.6132 119.082 12.6834C119.082 11.7537 118.28 11 117.291 11C116.302 11 115.5 11.7537 115.5 12.6834C115.5 13.6132 116.302 14.3669 117.291 14.3669Z" fill="white"/>
<path d="M133.524 14.4251C134.512 14.4251 135.314 13.6714 135.314 12.7416C135.314 11.8119 134.512 11.0582 133.524 11.0582C132.534 11.0582 131.732 11.8119 131.732 12.7416C131.732 13.6714 132.534 14.4251 133.524 14.4251Z" fill="white"/>
<path d="M138.352 19.0537C139.341 19.0537 140.143 18.3 140.143 17.3702C140.143 16.4405 139.341 15.6868 138.352 15.6868C137.363 15.6868 136.561 16.4405 136.561 17.3702C136.561 18.3 137.363 19.0537 138.352 19.0537Z" fill="white"/>
<path d="M138.352 14.4251C139.341 14.4251 140.143 13.6714 140.143 12.7416C140.143 11.8119 139.341 11.0582 138.352 11.0582C137.363 11.0582 136.561 11.8119 136.561 12.7416C136.561 13.6714 137.363 14.4251 138.352 14.4251Z" fill="white"/>
<path d="M122.226 35.75C123.216 35.75 124.017 34.9962 124.017 34.0665C124.017 33.1367 123.216 32.3832 122.226 32.3832C121.237 32.3832 120.436 33.1367 120.436 34.0665C120.436 34.9962 121.237 35.75 122.226 35.75Z" fill="white"/>
<path d="M117.398 31.1215C118.387 31.1215 119.189 30.3677 119.189 29.4379C119.189 28.5082 118.387 27.7547 117.398 27.7547C116.409 27.7547 115.607 28.5082 115.607 29.4379C115.607 30.3677 116.409 31.1215 117.398 31.1215Z" fill="white"/>
<path d="M117.398 35.75C118.387 35.75 119.189 34.9962 119.189 34.0665C119.189 33.1367 118.387 32.3832 117.398 32.3832C116.409 32.3832 115.607 33.1367 115.607 34.0665C115.607 34.9962 116.409 35.75 117.398 35.75Z" fill="white"/>
<path d="M133.631 35.6917C134.62 35.6917 135.422 34.9382 135.422 34.0084C135.422 33.0787 134.62 32.3249 133.631 32.3249C132.642 32.3249 131.84 33.0787 131.84 34.0084C131.84 34.9382 132.642 35.6917 133.631 35.6917Z" fill="white"/>
<path d="M138.459 31.0632C139.448 31.0632 140.25 30.3094 140.25 29.3796C140.25 28.4501 139.448 27.6964 138.459 27.6964C137.47 27.6964 136.668 28.4501 136.668 29.3796C136.668 30.3094 137.47 31.0632 138.459 31.0632Z" fill="white"/>
<path d="M138.459 35.6917C139.448 35.6917 140.25 34.9382 140.25 34.0084C140.25 33.0787 139.448 32.3249 138.459 32.3249C137.47 32.3249 136.668 33.0787 136.668 34.0084C136.668 34.9382 137.47 35.6917 138.459 35.6917Z" fill="white"/>
</g>
<defs>
<clipPath id="clip0_202_137">
<rect width="140.25" height="44" fill="white"/>
</clipPath>
</defs>
</svg>
