<svg width="48" height="48" viewBox="0 0 48 48" fill="none" xmlns="http://www.w3.org/2000/svg">
<path opacity="0.4" d="M30.1604 37.082L26.1224 41.122C25.8438 41.4008 25.513 41.6219 25.1489 41.7728C24.7848 41.9237 24.3946 42.0014 24.0004 42.0014C23.6063 42.0014 23.2161 41.9237 22.8519 41.7728C22.4878 41.6219 22.157 41.4008 21.8784 41.122L17.8404 37.082C17.3302 36.5707 16.6526 36.2607 15.9321 36.2089C15.2116 36.157 14.4966 36.367 13.9184 36.8L11.2004 38.842C10.9033 39.0649 10.55 39.2006 10.1801 39.2339C9.81013 39.2673 9.43823 39.197 9.10602 39.0309C8.7738 38.8647 8.49441 38.6094 8.29914 38.2935C8.10387 37.9775 8.00044 37.6134 8.00044 37.242V12C7.88416 11.185 7.95919 10.3541 8.2196 9.57311C8.48 8.79212 8.91864 8.08246 9.50077 7.50033C10.0829 6.91819 10.7926 6.47956 11.5736 6.21915C12.3545 5.95875 13.1854 5.88372 14.0004 6H34.0004C34.8155 5.88372 35.6463 5.95875 36.4273 6.21915C37.2083 6.47956 37.918 6.91819 38.5001 7.50033C39.0822 8.08246 39.5209 8.79212 39.7813 9.57311C40.0417 10.3541 40.1167 11.185 40.0004 12V37.242C40.0004 37.6134 39.897 37.9775 39.7017 38.2935C39.5065 38.6094 39.2271 38.8647 38.8949 39.0309C38.5627 39.197 38.1908 39.2673 37.8208 39.2339C37.4509 39.2006 37.0976 39.0649 36.8004 38.842L34.0824 36.8C33.5043 36.367 32.7893 36.157 32.0688 36.2089C31.3483 36.2607 30.6707 36.5707 30.1604 37.082Z" fill="white"/>
<path d="M32 19.5H16C15.6022 19.5 15.2206 19.342 14.9393 19.0607C14.658 18.7794 14.5 18.3978 14.5 18C14.5 17.6022 14.658 17.2206 14.9393 16.9393C15.2206 16.658 15.6022 16.5 16 16.5H32C32.3978 16.5 32.7794 16.658 33.0607 16.9393C33.342 17.2206 33.5 17.6022 33.5 18C33.5 18.3978 33.342 18.7794 33.0607 19.0607C32.7794 19.342 32.3978 19.5 32 19.5ZM27.5 26C27.5 25.6022 27.342 25.2206 27.0607 24.9393C26.7794 24.658 26.3978 24.5 26 24.5H16C15.6022 24.5 15.2206 24.658 14.9393 24.9393C14.658 25.2206 14.5 25.6022 14.5 26C14.5 26.3978 14.658 26.7794 14.9393 27.0607C15.2206 27.342 15.6022 27.5 16 27.5H26C26.3978 27.5 26.7794 27.342 27.0607 27.0607C27.342 26.7794 27.5 26.3978 27.5 26Z" fill="white"/>
</svg>
