<svg width="24" height="24" viewBox="0 0 24 24" fill="none" xmlns="http://www.w3.org/2000/svg">
<path d="M21.137 11.519L18.411 10.74C17.1834 10.3939 16.0652 9.73858 15.1633 8.8367C14.2614 7.93483 13.6061 6.8166 13.26 5.58901L12.481 2.86301C12.4418 2.76763 12.3752 2.68606 12.2895 2.62865C12.2039 2.57124 12.1031 2.54059 12 2.54059C11.8969 2.54059 11.7961 2.57124 11.7105 2.62865C11.6248 2.68606 11.5582 2.76763 11.519 2.86301L10.74 5.58901C10.3939 6.8166 9.73856 7.93483 8.83668 8.8367C7.93481 9.73858 6.81658 10.3939 5.58899 10.74L2.86299 11.519C2.75832 11.5487 2.6662 11.6118 2.6006 11.6986C2.535 11.7854 2.49951 11.8912 2.49951 12C2.49951 12.1088 2.535 12.2146 2.6006 12.3015C2.6662 12.3883 2.75832 12.4513 2.86299 12.481L5.58899 13.26C6.81658 13.6061 7.93481 14.2614 8.83668 15.1633C9.73856 16.0652 10.3939 17.1834 10.74 18.411L11.519 21.137C11.5487 21.2417 11.6117 21.3338 11.6985 21.3994C11.7853 21.465 11.8912 21.5005 12 21.5005C12.1088 21.5005 12.2146 21.465 12.3014 21.3994C12.3882 21.3338 12.4513 21.2417 12.481 21.137L13.26 18.411C13.6061 17.1834 14.2614 16.0652 15.1633 15.1633C16.0652 14.2614 17.1834 13.6061 18.411 13.26L21.137 12.481C21.2417 12.4513 21.3338 12.3883 21.3994 12.3015C21.465 12.2146 21.5005 12.1088 21.5005 12C21.5005 11.8912 21.465 11.7854 21.3994 11.6986C21.3338 11.6118 21.2417 11.5487 21.137 11.519Z" fill="white"/>
</svg>
